<?xml version="1.0" encoding="UTF-8"?>
<!DOCTYPE svg PUBLIC "-//W3C//DTD SVG 1.1//EN" "http://www.w3.org/Graphics/SVG/1.1/DTD/svg11.dtd">
<!-- Creator: CorelDRAW -->
<svg xmlns="http://www.w3.org/2000/svg" xml:space="preserve" width="120.208mm" height="48.5587mm" style="shape-rendering:geometricPrecision; text-rendering:geometricPrecision; image-rendering:optimizeQuality; fill-rule:evenodd; clip-rule:evenodd"
viewBox="0 0 54.0356 21.828"
 xmlns:xlink="http://www.w3.org/1999/xlink">
 <defs>
  <style type="text/css">
   <![CDATA[
    .fil0 {fill:white}
   ]]>
  </style>
 </defs>
 <g id="Vrstva_x0020_1">
  <metadata id="CorelCorpID_0Corel-Layer"/>
  <rect class="fil0" x="0.16039" y="20.9275" width="53.8115" height="0.900413"/>
  <path class="fil0" d="M4.56768 19.6587c-0.858712,0 -1.70929,-0.156657 -2.46146,-0.586485 -0.697156,-0.398362 -1.21433,-0.97199 -1.56612,-1.69338 -0.401149,-0.822616 -0.540095,-1.74876 -0.540095,-2.65691l0 -9.78522c0,-0.909058 0.140564,-1.83709 0.54005,-2.66132 0.350309,-0.722823 0.866354,-1.2982 1.56634,-1.6936 0.7533,-0.425423 1.60347,-0.58181 2.46129,-0.58181 0.859117,0 1.72003,0.155623 2.47477,0.58181 0.701786,0.396384 1.21513,0.968979 1.56639,1.6936 0.399441,0.824234 0.540005,1.75226 0.540005,2.66132l0 1.23244 -3.01397 0 0 -1.23244c0,-0.361591 -0.0439178,-0.735545 -0.181245,-1.07259 -0.111975,-0.2747 -0.282027,-0.506066 -0.532273,-0.668252 -0.256584,-0.166321 -0.550523,-0.231456 -0.853678,-0.231456 -0.2974,0 -0.580866,0.0662138 -0.830842,0.231232 -0.248088,0.163849 -0.417916,0.397013 -0.532812,0.669016 -0.141688,0.335564 -0.185561,0.710417 -0.185561,1.07205l0 9.78522c0,0.356737 0.0438729,0.732488 0.185471,1.06288 0.116964,0.272857 0.285084,0.503234 0.533127,0.669331 0.248313,0.166321 0.53488,0.226601 0.830617,0.226601 0.301356,0 0.598622,-0.0592463 0.853453,-0.226826 0.250291,-0.164478 0.41859,-0.392968 0.532588,-0.668567 0.138496,-0.33498 0.181155,-0.717069 0.181155,-1.07691l0 -1.21896 3.01397 0 0 1.21896c0,0.911261 -0.140654,1.83475 -0.540005,2.66128 -0.351702,0.727903 -0.863837,1.30117 -1.56621,1.7025 -0.75357,0.430637 -1.61502,0.586485 -2.47495,0.586485zm9.5548 -0.198057l-2.97791 0 0 -19.2626 2.97791 0 0 19.2626zm12.1365 -12.1725l-2.74547 8.90026 -1.68973 0 -2.67813 -8.46418 0 11.7364 -2.76642 0 0 -19.2626 2.79514 0 3.48798 11.1194 3.58162 -11.1194 2.71387 0 0 19.2626 -2.69885 0 0 -12.1725zm12.3998 3.52884l2.84216 8.64363 -3.222 0 -2.43238 -8.11086 -1.55056 0 0 8.11086 -2.93741 0 0 -19.2761 4.64868 0c0.901596,0 1.83192,0.131124 2.65611,0.512719 0.715631,0.331249 1.29232,0.827965 1.69387,1.50741 0.427581,0.723318 0.586754,1.54369 0.586754,2.37651l0 2.24152c0,0.852779 -0.157466,1.69783 -0.586485,2.44357 -0.399216,0.694054 -0.977834,1.20489 -1.69872,1.55079zm-4.36279 -2.31016l1.92281 0c0.315516,0 0.633549,-0.0503459 0.915801,-0.197518 0.247909,-0.129281 0.447045,-0.316235 0.580192,-0.562481 0.147936,-0.273621 0.197248,-0.589317 0.197248,-0.897236l0 -2.04346c0,-0.329271 -0.0527283,-0.663802 -0.198102,-0.961831 -0.129146,-0.264676 -0.320506,-0.470914 -0.579877,-0.610624 -0.280948,-0.151307 -0.599296,-0.201788 -0.915261,-0.201788l-1.92281 0 0 5.47494zm15.9872 7.36646l-3.91224 0 -0.690548 3.58732 -3.05838 0 4.51724 -19.2626 2.36549 0 4.53082 19.2626 -3.05838 0 -0.694009 -3.58732zm-3.37538 -2.78889l2.83582 0 -1.42151 -7.34753 -1.41432 7.34753z"/>
 </g>
</svg>
