<?xml version="1.0" standalone="no"?>
 <!DOCTYPE svg PUBLIC "-//W3C//DTD SVG 1.1//EN" 
 "http://www.w3.org/Graphics/SVG/1.1/DTD/svg11.dtd"> 
<svg
  xmlns:svg="http://www.w3.org/2000/svg"
  xmlns="http://www.w3.org/2000/svg"
  xmlns:xlink="http://www.w3.org/1999/xlink"
  version="1.1"
  width="29.700220cm" height="21.000720cm" viewBox="0 0 116930 82680">
<title>SVG Picture created as MiSPiZ-F_CrtYd.svg date 2021/12/22 15:09:08 </title>
  <desc>Picture generated by PCBNEW </desc>
<g style="fill:#000000; fill-opacity:1;stroke:#000000; stroke-opacity:1;
stroke-linecap:round; stroke-linejoin:round;"
 transform="translate(0 0) scale(1 1)">
</g>
<g style="fill:#000000; fill-opacity:0.0; 
stroke:#000000; stroke-width:-0.000393701; stroke-opacity:1; 
stroke-linecap:round; stroke-linejoin:round;">
</g>
<g style="fill:#000000; fill-opacity:0.0; 
stroke:#000000; stroke-width:59.0551; stroke-opacity:1; 
stroke-linecap:round; stroke-linejoin:round;">
<path d="M35376 18979
L35376 16420
" />
<path d="M35376 18979
L37935 18979
" />
<path d="M35376 16420
L37935 16420
" />
<path d="M37935 18979
L37935 16420
" />
<path d="M30782 19290
L30782 21259
" />
<path d="M32750 21259
L30782 21259
" />
<path d="M32750 19290
L32750 21259
" />
<path d="M32750 19290
L30782 19290
" />
<path d="M43484 26015
L41515 26015
" />
<path d="M41515 27984
L41515 26015
" />
<path d="M43484 27984
L41515 27984
" />
<path d="M43484 27984
L43484 26015
" />
<path d="M46157 14362
L46157 14937
" />
<path d="M46157 14937
L44992 14937
" />
<path d="M44992 14937
L44992 14362
" />
<path d="M44992 14362
L46157 14362
" />
<path d="M46091 24266
L46091 27843
" />
<path d="M46091 27843
L43958 27843
" />
<path d="M43958 27843
L43958 24266
" />
<path d="M43958 24266
L46091 24266
" />
<path d="M11280 29839
L11280 26095
" />
<path d="M7028 29839
L11280 29839
" />
<path d="M7028 26095
L7028 29839
" />
<path d="M11280 26095
L7028 26095
" />
<circle cx="44375" cy="30525" r="1476.38" /> 
<circle cx="12825" cy="30525" r="1476.38" /> 
<circle cx="13200" cy="10950" r="1476.38" /> 
<circle cx="44500" cy="12475" r="1476.38" /> 
<path d="M22605 12150
L23160 12150
" />
<path d="M22605 8745
L22605 12150
" />
<path d="M14845 8745
L22605 8745
" />
<path d="M14845 12150
L14845 8745
" />
<path d="M14290 12150
L14845 12150
" />
<path d="M14290 13100
L14290 12150
" />
<path d="M14845 13100
L14290 13100
" />
<path d="M14845 16505
L14845 13100
" />
<path d="M22605 16505
L14845 16505
" />
<path d="M22605 13100
L22605 16505
" />
<path d="M23160 13100
L22605 13100
" />
<path d="M23160 12150
L23160 13100
" />
<path d="M11280 26067
L11280 20945
" />
<path d="M7028 26067
L11280 26067
" />
<path d="M7028 20945
L7028 26067
" />
<path d="M11280 20945
L7028 20945
" />
</g>
<g style="fill:#000000; fill-opacity:1.0; 
stroke:#000000; stroke-width:0; stroke-opacity:1; 
stroke-linecap:round; stroke-linejoin:round;">
<circle cx="22394.8" cy="21820.1" r="29.5276" /> 
</g>
<g style="fill:#000000; fill-opacity:1.0; 
stroke:#000000; stroke-width:59.0551; stroke-opacity:1; 
stroke-linecap:round; stroke-linejoin:round;">
</g>
<g style="fill:#000000; fill-opacity:0.0; 
stroke:#000000; stroke-width:59.0551; stroke-opacity:1; 
stroke-linecap:round; stroke-linejoin:round;">
<path d="M22595 23239
L22492 23239
" />
<path d="M22595 23355
L22595 23239
" />
<path d="M24405 23355
L22595 23355
" />
<path d="M24405 23239
L24405 23355
" />
<path d="M24507 23239
L24405 23239
" />
<path d="M24507 21660
L24507 23239
" />
<path d="M24405 21660
L24507 21660
" />
<path d="M24405 21545
L24405 21660
" />
<path d="M22595 21545
L24405 21545
" />
<path d="M22595 21660
L22595 21545
" />
<path d="M22492 21660
L22595 21660
" />
<path d="M22492 23239
L22492 21660
" />
<path d="M23365.8 21645 A134.167 134.167 0.0 0 0 23634.2 21645" />
<path d="M21334 21647
L21334 19852
" />
<path d="M22215 21647
L21334 21647
" />
<path d="M22215 19852
L22215 21647
" />
<path d="M21334 19852
L22215 19852
" />
<path d="M14265 21647
L13384 21647
" />
<path d="M13384 21647
L13384 19852
" />
<path d="M13384 19852
L14265 19852
" />
<path d="M14265 19852
L14265 21647
" />
<path d="M24095 13100
L23540 13100
" />
<path d="M24095 16505
L24095 13100
" />
<path d="M31855 16505
L24095 16505
" />
<path d="M31855 13100
L31855 16505
" />
<path d="M32410 13100
L31855 13100
" />
<path d="M32410 12150
L32410 13100
" />
<path d="M31855 12150
L32410 12150
" />
<path d="M31855 8745
L31855 12150
" />
<path d="M24095 8745
L31855 8745
" />
<path d="M24095 12150
L24095 8745
" />
<path d="M23540 12150
L24095 12150
" />
<path d="M23540 13100
L23540 12150
" />
</g>
<g style="fill:#000000; fill-opacity:1.0; 
stroke:#000000; stroke-width:0; stroke-opacity:1; 
stroke-linecap:round; stroke-linejoin:round;">
<circle cx="39676.4" cy="24545" r="29.5276" /> 
</g>
<g style="fill:#000000; fill-opacity:1.0; 
stroke:#000000; stroke-width:59.0551; stroke-opacity:1; 
stroke-linecap:round; stroke-linejoin:round;">
</g>
<g style="fill:#000000; fill-opacity:0.0; 
stroke:#000000; stroke-width:59.0551; stroke-opacity:1; 
stroke-linecap:round; stroke-linejoin:round;">
<path d="M36330 25123
L36330 24880
" />
<path d="M36210 25123
L36330 25123
" />
<path d="M36210 28376
L36210 25123
" />
<path d="M36330 28376
L36210 28376
" />
<path d="M36330 28620
L36330 28376
" />
<path d="M36573 28620
L36330 28620
" />
<path d="M36573 28740
L36573 28620
" />
<path d="M39826 28740
L36573 28740
" />
<path d="M39826 28620
L39826 28740
" />
<path d="M40070 28620
L39826 28620
" />
<path d="M40070 28376
L40070 28620
" />
<path d="M40190 28376
L40070 28376
" />
<path d="M40190 25123
L40190 28376
" />
<path d="M40070 25123
L40190 25123
" />
<path d="M40070 24880
L40070 25123
" />
<path d="M39826 24880
L40070 24880
" />
<path d="M39826 24760
L39826 24880
" />
<path d="M36573 24760
L39826 24760
" />
<path d="M36573 24880
L36573 24760
" />
<path d="M36330 24880
L36573 24880
" />
<path d="M29462 18682
L30037 18682
" />
<path d="M30037 18682
L30037 19847
" />
<path d="M30037 19847
L29462 19847
" />
<path d="M29462 19847
L29462 18682
" />
<path d="M34237 16882
L34237 15717
" />
<path d="M34812 16882
L34237 16882
" />
<path d="M34812 15717
L34812 16882
" />
<path d="M34237 15717
L34812 15717
" />
<path d="M34812 17217
L34812 18382
" />
<path d="M34237 17217
L34812 17217
" />
<path d="M34237 18382
L34237 17217
" />
<path d="M34812 18382
L34237 18382
" />
<path d="M30037 19992
L30037 21157
" />
<path d="M29462 19992
L30037 19992
" />
<path d="M29462 21157
L29462 19992
" />
<path d="M30037 21157
L29462 21157
" />
<path d="M37762 16207
L37187 16207
" />
<path d="M37187 16207
L37187 15042
" />
<path d="M37187 15042
L37762 15042
" />
<path d="M37762 15042
L37762 16207
" />
<path d="M38387 16207
L37812 16207
" />
<path d="M37812 16207
L37812 15042
" />
<path d="M37812 15042
L38387 15042
" />
<path d="M38387 15042
L38387 16207
" />
<path d="M29601 22666
L31098 22666
" />
<path d="M31098 22666
L31098 24083
" />
<path d="M31098 24083
L29601 24083
" />
<path d="M29601 24083
L29601 22666
" />
<path d="M14143 16554
L11506 16554
" />
<path d="M14143 12695
L14143 16554
" />
<path d="M11506 12695
L14143 12695
" />
<path d="M11506 16554
L11506 12695
" />
<path d="M11280 20892
L11280 15770
" />
<path d="M7028 20892
L11280 20892
" />
<path d="M7028 15770
L7028 20892
" />
<path d="M11280 15770
L7028 15770
" />
<path d="M11280 11995
L7028 11995
" />
<path d="M7028 11995
L7028 15739
" />
<path d="M7028 15739
L11280 15739
" />
<path d="M11280 15739
L11280 11995
" />
<path d="M11280 8195
L7028 8195
" />
<path d="M7028 8195
L7028 11939
" />
<path d="M7028 11939
L11280 11939
" />
<path d="M11280 11939
L11280 8195
" />
<path d="M15857 21512
L14692 21512
" />
<path d="M15857 20937
L15857 21512
" />
<path d="M14692 20937
L15857 20937
" />
<path d="M14692 21512
L14692 20937
" />
<path d="M26162 23182
L26162 22017
" />
<path d="M26737 23182
L26162 23182
" />
<path d="M26737 22017
L26737 23182
" />
<path d="M26162 22017
L26737 22017
" />
<path d="M18637 23357
L18637 22192
" />
<path d="M19212 23357
L18637 23357
" />
<path d="M19212 22192
L19212 23357
" />
<path d="M18637 22192
L19212 22192
" />
<path d="M19212 20692
L19212 21857
" />
<path d="M18637 20692
L19212 20692
" />
<path d="M18637 21857
L18637 20692
" />
<path d="M19212 21857
L18637 21857
" />
<path d="M20537 26307
L19962 26307
" />
<path d="M19962 26307
L19962 25142
" />
<path d="M19962 25142
L20537 25142
" />
<path d="M20537 25142
L20537 26307
" />
<path d="M22617 21487
L22617 20912
" />
<path d="M22617 20912
L23782 20912
" />
<path d="M23782 20912
L23782 21487
" />
<path d="M23782 21487
L22617 21487
" />
<path d="M29737 25982
L29162 25982
" />
<path d="M29162 25982
L29162 24817
" />
<path d="M29162 24817
L29737 24817
" />
<path d="M29737 24817
L29737 25982
" />
<path d="M36114 23844
L36114 22505
" />
<path d="M36885 23844
L36114 23844
" />
<path d="M36885 22505
L36885 23844
" />
<path d="M36114 22505
L36885 22505
" />
<path d="M35289 23844
L35289 22505
" />
<path d="M36060 23844
L35289 23844
" />
<path d="M36060 22505
L36060 23844
" />
<path d="M35289 22505
L36060 22505
" />
<path d="M33089 23869
L33089 22530
" />
<path d="M33860 23869
L33089 23869
" />
<path d="M33860 22530
L33860 23869
" />
<path d="M33089 22530
L33860 22530
" />
<path d="M32982 26137
L32982 26712
" />
<path d="M32982 26712
L31817 26712
" />
<path d="M31817 26712
L31817 26137
" />
<path d="M31817 26137
L32982 26137
" />
<path d="M35657 12962
L35657 13537
" />
<path d="M35657 13537
L34492 13537
" />
<path d="M34492 13537
L34492 12962
" />
<path d="M34492 12962
L35657 12962
" />
<path d="M38842 13212
L38842 12637
" />
<path d="M38842 12637
L40007 12637
" />
<path d="M40007 12637
L40007 13212
" />
<path d="M40007 13212
L38842 13212
" />
<path d="M25440 23852
L25440 25647
" />
<path d="M24559 23852
L25440 23852
" />
<path d="M24559 25647
L24559 23852
" />
<path d="M25440 25647
L24559 25647
" />
<path d="M33287 19107
L32712 19107
" />
<path d="M32712 19107
L32712 17942
" />
<path d="M32712 17942
L33287 17942
" />
<path d="M33287 17942
L33287 19107
" />
<path d="M38842 12537
L38842 11962
" />
<path d="M38842 11962
L40007 11962
" />
<path d="M40007 11962
L40007 12537
" />
<path d="M40007 12537
L38842 12537
" />
<path d="M30715 18494
L30303 18494
" />
<path d="M30715 18590
L30715 18494
" />
<path d="M31585 18590
L30715 18590
" />
<path d="M31585 18494
L31585 18590
" />
<path d="M31996 18494
L31585 18494
" />
<path d="M31996 17305
L31996 18494
" />
<path d="M31585 17305
L31996 17305
" />
<path d="M31585 17210
L31585 17305
" />
<path d="M30715 17210
L31585 17210
" />
<path d="M30715 17305
L30715 17210
" />
<path d="M30303 17305
L30715 17305
" />
<path d="M30303 18494
L30303 17305
" />
<path d="M31038.3 17310 A111.667 111.667 0.0 0 0 31261.7 17310" />
<path d="M29791 28398
L31208 28398
" />
<path d="M31208 28398
L31208 26901
" />
<path d="M31208 26901
L29791 26901
" />
<path d="M29791 26901
L29791 28398
" />
</g>
<g style="fill:#000000; fill-opacity:1.0; 
stroke:#000000; stroke-width:0; stroke-opacity:1; 
stroke-linecap:round; stroke-linejoin:round;">
<circle cx="14544.8" cy="21820.1" r="29.5276" /> 
</g>
<g style="fill:#000000; fill-opacity:1.0; 
stroke:#000000; stroke-width:59.0551; stroke-opacity:1; 
stroke-linecap:round; stroke-linejoin:round;">
</g>
<g style="fill:#000000; fill-opacity:0.0; 
stroke:#000000; stroke-width:59.0551; stroke-opacity:1; 
stroke-linecap:round; stroke-linejoin:round;">
<path d="M14745 23239
L14642 23239
" />
<path d="M14745 23355
L14745 23239
" />
<path d="M16555 23355
L14745 23355
" />
<path d="M16555 23239
L16555 23355
" />
<path d="M16657 23239
L16555 23239
" />
<path d="M16657 21660
L16657 23239
" />
<path d="M16555 21660
L16657 21660
" />
<path d="M16555 21545
L16555 21660
" />
<path d="M14745 21545
L16555 21545
" />
<path d="M14745 21660
L14745 21545
" />
<path d="M14642 21660
L14745 21660
" />
<path d="M14642 23239
L14642 21660
" />
<path d="M15515.8 21645 A134.167 134.167 0.0 0 0 15784.2 21645" />
<path d="M29816 26548
L29816 25051
" />
<path d="M29816 25051
L31233 25051
" />
<path d="M31233 25051
L31233 26548
" />
<path d="M31233 26548
L29816 26548
" />
<path d="M42200 10928
L45550 10928
" />
<path d="M42200 7613
L42200 10928
" />
<path d="M45550 7613
L42200 7613
" />
<path d="M45550 10928
L45550 7613
" />
<path d="M37700 10928
L41050 10928
" />
<path d="M37700 7613
L37700 10928
" />
<path d="M41050 7613
L37700 7613
" />
<path d="M41050 10928
L41050 7613
" />
<path d="M33200 10928
L36550 10928
" />
<path d="M33200 7613
L33200 10928
" />
<path d="M36550 7613
L33200 7613
" />
<path d="M36550 10928
L36550 7613
" />
</g>
<g style="fill:#000000; fill-opacity:1.0; 
stroke:#000000; stroke-width:0; stroke-opacity:1; 
stroke-linecap:round; stroke-linejoin:round;">
<circle cx="40775" cy="23575" r="29.5276" /> 
</g>
<g style="fill:#000000; fill-opacity:1.0; 
stroke:#000000; stroke-width:59.0551; stroke-opacity:1; 
stroke-linecap:round; stroke-linejoin:round;">
</g>
<g style="fill:#000000; fill-opacity:0.0; 
stroke:#000000; stroke-width:59.0551; stroke-opacity:1; 
stroke-linecap:round; stroke-linejoin:round;">
<path d="M39335 23200
L41115 23200
" />
<path d="M39335 23950
L39335 23200
" />
<path d="M41115 23950
L39335 23950
" />
<path d="M41115 23200
L41115 23950
" />
<path d="M45983 16266
L44566 16266
" />
<path d="M45983 19671
L45983 16266
" />
<path d="M44566 19671
L45983 19671
" />
<path d="M44566 16266
L44566 19671
" />
<path d="M45983 19741
L44566 19741
" />
<path d="M45983 24150
L45983 19741
" />
<path d="M44566 24150
L45983 24150
" />
<path d="M44566 19741
L44566 24150
" />
<path d="M43742 16212
L43742 15637
" />
<path d="M43742 15637
L44907 15637
" />
<path d="M44907 15637
L44907 16212
" />
<path d="M44907 16212
L43742 16212
" />
<path d="M43742 15587
L43742 15012
" />
<path d="M43742 15012
L44907 15012
" />
<path d="M44907 15012
L44907 15587
" />
<path d="M44907 15587
L43742 15587
" />
<path d="M14752 23759
L16547 23759
" />
<path d="M14752 24640
L14752 23759
" />
<path d="M16547 24640
L14752 24640
" />
<path d="M16547 23759
L16547 24640
" />
<path d="M41307 12637
L41307 13212
" />
<path d="M41307 13212
L40142 13212
" />
<path d="M40142 13212
L40142 12637
" />
<path d="M40142 12637
L41307 12637
" />
<path d="M31432 16562
L31432 17137
" />
<path d="M31432 17137
L30267 17137
" />
<path d="M30267 17137
L30267 16562
" />
<path d="M30267 16562
L31432 16562
" />
<path d="M32332 18637
L32332 19212
" />
<path d="M32332 19212
L31167 19212
" />
<path d="M31167 19212
L31167 18637
" />
<path d="M31167 18637
L32332 18637
" />
<path d="M29737 26067
L29737 27232
" />
<path d="M29162 26067
L29737 26067
" />
<path d="M29162 27232
L29162 26067
" />
<path d="M29737 27232
L29162 27232
" />
<path d="M41312 26692
L41312 27857
" />
<path d="M40737 26692
L41312 26692
" />
<path d="M40737 27857
L40737 26692
" />
<path d="M41312 27857
L40737 27857
" />
<path d="M26737 21532
L26162 21532
" />
<path d="M26162 21532
L26162 20367
" />
<path d="M26162 20367
L26737 20367
" />
<path d="M26737 20367
L26737 21532
" />
<path d="M36107 13662
L36107 14237
" />
<path d="M36107 14237
L34942 14237
" />
<path d="M34942 14237
L34942 13662
" />
<path d="M34942 13662
L36107 13662
" />
<path d="M37107 15762
L37107 16337
" />
<path d="M37107 16337
L35942 16337
" />
<path d="M35942 16337
L35942 15762
" />
<path d="M35942 15762
L37107 15762
" />
<path d="M43609 13915
L43609 19034
" />
<path d="M38490 19034
L38490 13915
" />
<path d="M38490 19035
L43600 19035
" />
<path d="M38490 13905
L43610 13905
" />
<path d="M44419 21438
L43080 21438
" />
<path d="M43080 21438
L43080 20061
" />
<path d="M43080 20061
L44419 20061
" />
<path d="M44419 20061
L44419 21438
" />
<path d="M44257 19412
L44257 19987
" />
<path d="M44257 19987
L43092 19987
" />
<path d="M43092 19987
L43092 19412
" />
<path d="M43092 19412
L44257 19412
" />
<path d="M39912 21992
L39912 23157
" />
<path d="M39337 21992
L39912 21992
" />
<path d="M39337 23157
L39337 21992
" />
<path d="M39912 23157
L39337 23157
" />
<path d="M41112 21992
L41112 23157
" />
<path d="M40537 21992
L41112 21992
" />
<path d="M40537 23157
L40537 21992
" />
<path d="M41112 23157
L40537 23157
" />
<path d="M41307 11962
L41307 12537
" />
<path d="M41307 12537
L40142 12537
" />
<path d="M40142 12537
L40142 11962
" />
<path d="M40142 11962
L41307 11962
" />
<path d="M35657 12212
L35657 12787
" />
<path d="M35657 12787
L34492 12787
" />
<path d="M34492 12787
L34492 12212
" />
<path d="M34492 12212
L35657 12212
" />
<path d="M43742 14937
L43742 14362
" />
<path d="M43742 14362
L44907 14362
" />
<path d="M44907 14362
L44907 14937
" />
<path d="M44907 14937
L43742 14937
" />
<path d="M46157 15637
L46157 16212
" />
<path d="M46157 16212
L44992 16212
" />
<path d="M44992 16212
L44992 15637
" />
<path d="M44992 15637
L46157 15637
" />
<path d="M46157 15012
L46157 15587
" />
<path d="M46157 15587
L44992 15587
" />
<path d="M44992 15587
L44992 15012
" />
<path d="M44992 15012
L46157 15012
" />
<path d="M35365 15594
L34953 15594
" />
<path d="M35365 15690
L35365 15594
" />
<path d="M36235 15690
L35365 15690
" />
<path d="M36235 15594
L36235 15690
" />
<path d="M36646 15594
L36235 15594
" />
<path d="M36646 14405
L36646 15594
" />
<path d="M36235 14405
L36646 14405
" />
<path d="M36235 14310
L36235 14405
" />
<path d="M35365 14310
L36235 14310
" />
<path d="M35365 14405
L35365 14310
" />
<path d="M34953 14405
L35365 14405
" />
<path d="M34953 15594
L34953 14405
" />
<path d="M35688.3 14410 A111.667 111.667 0.0 0 0 35911.7 14410" />
<path d="M17887 22192
L18462 22192
" />
<path d="M18462 22192
L18462 23357
" />
<path d="M18462 23357
L17887 23357
" />
<path d="M17887 23357
L17887 22192
" />
<path d="M27412 21532
L26837 21532
" />
<path d="M26837 21532
L26837 20367
" />
<path d="M26837 20367
L27412 20367
" />
<path d="M27412 20367
L27412 21532
" />
<path d="M18462 21857
L17887 21857
" />
<path d="M17887 21857
L17887 20692
" />
<path d="M17887 20692
L18462 20692
" />
<path d="M18462 20692
L18462 21857
" />
<path d="M26837 22017
L27412 22017
" />
<path d="M27412 22017
L27412 23182
" />
<path d="M27412 23182
L26837 23182
" />
<path d="M26837 23182
L26837 22017
" />
<path d="M34299 23635
L34299 23264
" />
<path d="M34299 23264
L35032 23264
" />
<path d="M35032 23264
L35032 23635
" />
<path d="M35032 23635
L34299 23635
" />
<path d="M33912 19107
L33337 19107
" />
<path d="M33337 19107
L33337 17942
" />
<path d="M33337 17942
L33912 17942
" />
<path d="M33912 17942
L33912 19107
" />
<g >
</g>
<g >
</g>
<g >
</g>
<g >
</g>
<g >
</g>
<g >
</g>
<g >
</g>
<g >
</g>
<g >
</g>
<g >
</g>
<g >
</g>
<g >
</g>
<g >
</g>
<g >
</g>
<g >
</g>
<g >
</g>
<g >
</g>
<g >
</g>
<g >
</g>
<g >
</g>
<g >
</g>
<g >
</g>
<g >
</g>
<g >
</g>
<g >
</g>
<g >
</g>
<g >
</g>
<g >
</g>
<g >
</g>
<g >
</g>
<g >
</g>
<g >
</g>
<g >
</g>
<g >
</g>
<g >
</g>
<g >
</g>
<g >
</g>
<g >
</g>
<g >
</g>
<g >
</g>
<g >
</g>
<g >
</g>
<g >
</g>
<g >
</g>
<g >
</g>
<g >
</g>
<g >
</g>
<g >
</g>
<g >
</g>
<g >
</g>
<g >
</g>
<g >
</g>
<g >
</g>
<g >
</g>
<g >
</g>
<g >
</g>
<g >
</g>
<g >
</g>
<g >
</g>
<g >
</g>
<g >
</g>
<g >
</g>
<g >
</g>
<g >
</g>
<g >
</g>
<g >
</g>
<g >
</g>
<g >
</g>
<g >
</g>
<g >
</g>
<g >
</g>
<g >
</g>
<g >
</g>
<g >
</g>
<g >
</g>
<g >
</g>
<g >
</g>
<g >
</g>
<g >
</g>
<g >
</g>
<g >
</g>
<g >
</g>
<g >
</g>
<g >
</g>
<g >
</g>
<g >
</g>
<g >
</g>
<g >
</g>
<g >
</g>
<g >
</g>
<g >
</g>
<g >
</g>
<g >
</g>
<g >
</g>
<g >
</g>
<g >
</g>
<g >
</g>
<g >
</g>
<g >
</g>
<g >
</g>
<g >
</g>
<g >
</g>
<g >
</g>
<g >
</g>
<g >
</g>
<g >
</g>
<g >
</g>
<g >
</g>
<g >
</g>
<g >
</g>
<g >
</g>
<g >
</g>
<g >
</g>
<g >
</g>
<g >
</g>
<g >
</g>
<g >
</g>
<g >
</g>
<g >
</g>
<g >
</g>
<g >
</g>
<g >
</g>
<g >
</g>
<g >
</g>
<g >
</g>
<g >
</g>
<g >
</g>
<g >
</g>
<g >
</g>
<g >
</g>
<g >
</g>
<g >
</g>
<g >
</g>
<g >
</g>
<g >
</g>
<g >
</g>
<g >
</g>
<g >
</g>
<g >
</g>
<g >
</g>
<g >
</g>
<g >
</g>
<g >
</g>
<g >
</g>
<g >
</g>
</g> 
</svg>
