<?xml version="1.0" standalone="no"?>
 <!DOCTYPE svg PUBLIC "-//W3C//DTD SVG 1.1//EN" 
 "http://www.w3.org/Graphics/SVG/1.1/DTD/svg11.dtd"> 
<svg
  xmlns:svg="http://www.w3.org/2000/svg"
  xmlns="http://www.w3.org/2000/svg"
  xmlns:xlink="http://www.w3.org/1999/xlink"
  version="1.1"
  width="29.700220cm" height="21.000720cm" viewBox="0 0 116930 82680">
<title>SVG Picture created as MiSPiZ-Dwgs_User.svg date 2021/12/22 15:09:07 </title>
  <desc>Picture generated by PCBNEW </desc>
<g style="fill:#000000; fill-opacity:1;stroke:#000000; stroke-opacity:1;
stroke-linecap:round; stroke-linejoin:round;"
 transform="translate(0 0) scale(1 1)">
</g>
<g style="fill:#000000; fill-opacity:0.0; 
stroke:#000000; stroke-width:-0.000393701; stroke-opacity:1; 
stroke-linecap:round; stroke-linejoin:round;">
</g>
<g style="fill:#000000; fill-opacity:0.0; 
stroke:#000000; stroke-width:59.0551; stroke-opacity:1; 
stroke-linecap:round; stroke-linejoin:round;">
<path d="M40475 26325
L40325 26425
" />
<path d="M40300 26500
L40475 26325
" />
<g transform="rotate(-270 54761.8 20375)">
<text x="54761.8" y="20571.9"
textLength="3488.85" font-size="524.934" lengthAdjust="spacingAndGlyphs"
text-anchor="middle" opacity="0">61,595 mm</text>
</g>
<path d="M54977 18931
L54977 18856
L54958 18818
L54939 18800
L54883 18762
L54808 18743
L54658 18743
L54621 18762
L54602 18781
L54583 18818
L54583 18893
L54602 18931
L54621 18950
L54658 18968
L54752 18968
L54789 18950
L54808 18931
L54827 18893
L54827 18818
L54808 18781
L54789 18762
L54752 18743
" />
<path d="M54583 19343
L54583 19118
" />
<path d="M54583 19231
L54977 19231
L54921 19193
L54883 19156
L54864 19118
" />
<path d="M54602 19531
L54583 19531
L54546 19512
L54527 19493
" />
<path d="M54977 19887
L54977 19700
L54789 19681
L54808 19700
L54827 19737
L54827 19831
L54808 19868
L54789 19887
L54752 19906
L54658 19906
L54621 19887
L54602 19868
L54583 19831
L54583 19737
L54602 19700
L54621 19681
" />
<path d="M54583 20093
L54583 20168
L54602 20206
L54621 20225
L54677 20262
L54752 20281
L54902 20281
L54939 20262
L54958 20243
L54977 20206
L54977 20131
L54958 20093
L54939 20075
L54902 20056
L54808 20056
L54771 20075
L54752 20093
L54733 20131
L54733 20206
L54752 20243
L54771 20262
L54808 20281
" />
<path d="M54977 20637
L54977 20449
L54789 20431
L54808 20449
L54827 20487
L54827 20581
L54808 20618
L54789 20637
L54752 20656
L54658 20656
L54621 20637
L54602 20618
L54583 20581
L54583 20487
L54602 20449
L54621 20431
" />
<path d="M54583 21124
L54846 21124
" />
<path d="M54808 21124
L54827 21143
L54846 21181
L54846 21237
L54827 21274
L54789 21293
L54583 21293
" />
<path d="M54789 21293
L54827 21312
L54846 21349
L54846 21406
L54827 21443
L54789 21462
L54583 21462
" />
<path d="M54583 21649
L54846 21649
" />
<path d="M54808 21649
L54827 21668
L54846 21706
L54846 21762
L54827 21799
L54789 21818
L54583 21818
" />
<path d="M54789 21818
L54827 21837
L54846 21874
L54846 21931
L54827 21968
L54789 21987
L54583 21987
" />
<path d="M54250 8250
L54250 32500
" />
<path d="M46750 8250
L54480 8250
" />
<path d="M46750 32500
L54480 32500
" />
<path d="M54250 32500
L54019 32056
" />
<path d="M54250 32500
L54480 32056
" />
<path d="M54250 8250
L54019 8693
" />
<path d="M54250 8250
L54480 8693
" />
<text x="27875" y="38958.7"
textLength="3488.85" font-size="524.934" lengthAdjust="spacingAndGlyphs"
text-anchor="middle" opacity="0">95,885 mm</text>
<path d="M26281 38939
L26356 38939
L26393 38921
L26412 38902
L26450 38846
L26468 38771
L26468 38621
L26450 38583
L26431 38564
L26393 38546
L26318 38546
L26281 38564
L26262 38583
L26243 38621
L26243 38714
L26262 38752
L26281 38771
L26318 38789
L26393 38789
L26431 38771
L26450 38752
L26468 38714
" />
<path d="M26825 38546
L26637 38546
L26618 38733
L26637 38714
L26675 38696
L26768 38696
L26806 38714
L26825 38733
L26843 38771
L26843 38864
L26825 38902
L26806 38921
L26768 38939
L26675 38939
L26637 38921
L26618 38902
" />
<path d="M27031 38921
L27031 38939
L27012 38977
L26993 38996
" />
<path d="M27256 38714
L27218 38696
L27200 38677
L27181 38639
L27181 38621
L27200 38583
L27218 38564
L27256 38546
L27331 38546
L27368 38564
L27387 38583
L27406 38621
L27406 38639
L27387 38677
L27368 38696
L27331 38714
L27256 38714
L27218 38733
L27200 38752
L27181 38789
L27181 38864
L27200 38902
L27218 38921
L27256 38939
L27331 38939
L27368 38921
L27387 38902
L27406 38864
L27406 38789
L27387 38752
L27368 38733
L27331 38714
" />
<path d="M27631 38714
L27593 38696
L27575 38677
L27556 38639
L27556 38621
L27575 38583
L27593 38564
L27631 38546
L27706 38546
L27743 38564
L27762 38583
L27781 38621
L27781 38639
L27762 38677
L27743 38696
L27706 38714
L27631 38714
L27593 38733
L27575 38752
L27556 38789
L27556 38864
L27575 38902
L27593 38921
L27631 38939
L27706 38939
L27743 38921
L27762 38902
L27781 38864
L27781 38789
L27762 38752
L27743 38733
L27706 38714
" />
<path d="M28137 38546
L27949 38546
L27931 38733
L27949 38714
L27987 38696
L28081 38696
L28118 38714
L28137 38733
L28156 38771
L28156 38864
L28137 38902
L28118 38921
L28081 38939
L27987 38939
L27949 38921
L27931 38902
" />
<path d="M28624 38939
L28624 38677
" />
<path d="M28624 38714
L28643 38696
L28681 38677
L28737 38677
L28774 38696
L28793 38733
L28793 38939
" />
<path d="M28793 38733
L28812 38696
L28849 38677
L28906 38677
L28943 38696
L28962 38733
L28962 38939
" />
<path d="M29149 38939
L29149 38677
" />
<path d="M29149 38714
L29168 38696
L29206 38677
L29262 38677
L29299 38696
L29318 38733
L29318 38939
" />
<path d="M29318 38733
L29337 38696
L29374 38677
L29431 38677
L29468 38696
L29487 38733
L29487 38939
" />
<path d="M9000 38250
L46750 38250
" />
<path d="M9000 32500
L9000 38480
" />
<path d="M46750 32500
L46750 38480
" />
<path d="M46750 38250
L46306 38480
" />
<path d="M46750 38250
L46306 38019
" />
<path d="M9000 38250
L9443 38480
" />
<path d="M9000 38250
L9443 38019
" />
<g >
</g>
<g >
</g>
<g >
</g>
<g >
</g>
<g >
</g>
<g >
</g>
<g >
</g>
<g >
</g>
<g >
</g>
<g >
</g>
<g >
</g>
<g >
</g>
<g >
</g>
<g >
</g>
<g >
</g>
<g >
</g>
<g >
</g>
<g >
</g>
<g >
</g>
<g >
</g>
<g >
</g>
<g >
</g>
<g >
</g>
<g >
</g>
<g >
</g>
<g >
</g>
<g >
</g>
<g >
</g>
<g >
</g>
<g >
</g>
<g >
</g>
<g >
</g>
<g >
</g>
<g >
</g>
<g >
</g>
<g >
</g>
<g >
</g>
<g >
</g>
<g >
</g>
<g >
</g>
<g >
</g>
<g >
</g>
<g >
</g>
<g >
</g>
<g >
</g>
<g >
</g>
<g >
</g>
<g >
</g>
<g >
</g>
<g >
</g>
<g >
</g>
<g >
</g>
<g >
</g>
<g >
</g>
<g >
</g>
<g >
</g>
<g >
</g>
<g >
</g>
<g >
</g>
<g >
</g>
<g >
</g>
<g >
</g>
<g >
</g>
<g >
</g>
<g >
</g>
<g >
</g>
<g >
</g>
<g >
</g>
<g >
</g>
<g >
</g>
<g >
</g>
<g >
</g>
<g >
</g>
<g >
</g>
<g >
</g>
<g >
</g>
<g >
</g>
<g >
</g>
<g >
</g>
<g >
</g>
<g >
</g>
<g >
</g>
<g >
</g>
<g >
</g>
<g >
</g>
<g >
</g>
<g >
</g>
<g >
</g>
<g >
</g>
<g >
</g>
<g >
</g>
<g >
</g>
<g >
</g>
<g >
</g>
<g >
</g>
<g >
</g>
<g >
</g>
<g >
</g>
<g >
</g>
<g >
</g>
<g >
</g>
<g >
</g>
<g >
</g>
<g >
</g>
<g >
</g>
<g >
</g>
<g >
</g>
<g >
</g>
<g >
</g>
<g >
</g>
<g >
</g>
<g >
</g>
<g >
</g>
<g >
</g>
<g >
</g>
<g >
</g>
<g >
</g>
<g >
</g>
<g >
</g>
<g >
</g>
<g >
</g>
<g >
</g>
<g >
</g>
<g >
</g>
<g >
</g>
<g >
</g>
<g >
</g>
<g >
</g>
<g >
</g>
<g >
</g>
<g >
</g>
<g >
</g>
<g >
</g>
<g >
</g>
<g >
</g>
<g >
</g>
<g >
</g>
<g >
</g>
<g >
</g>
<g >
</g>
<g >
</g>
<g >
</g>
<g >
</g>
<g >
</g>
<g >
</g>
</g> 
</svg>
