<?xml version="1.0" encoding="UTF-8" standalone="no"?>
<!-- Creator: CorelDRAW -->

<svg
   xml:space="preserve"
   width="123.88817mm"
   height="59.416031mm"
   style="clip-rule:evenodd;fill-rule:evenodd;image-rendering:optimizeQuality;shape-rendering:geometricPrecision;text-rendering:geometricPrecision"
   viewBox="0 0 55.6899 26.708563"
   version="1.1"
   id="svg233"
   sodipodi:docname="cimra.svg"
   inkscape:export-filename="/home/pavel/modular-current-source/HW_2.0/Loga/cimra.png"
   inkscape:export-xdpi="1000"
   inkscape:export-ydpi="1000"
   inkscape:version="1.1.2 (0a00cf5339, 2022-02-04)"
   xmlns:inkscape="http://www.inkscape.org/namespaces/inkscape"
   xmlns:sodipodi="http://sodipodi.sourceforge.net/DTD/sodipodi-0.dtd"
   xmlns="http://www.w3.org/2000/svg"
   xmlns:svg="http://www.w3.org/2000/svg"><sodipodi:namedview
   id="namedview235"
   pagecolor="#ffffff"
   bordercolor="#666666"
   borderopacity="1.0"
   inkscape:pageshadow="2"
   inkscape:pageopacity="0.0"
   inkscape:pagecheckerboard="0"
   inkscape:document-units="mm"
   showgrid="false"
   inkscape:zoom="3.2245323"
   inkscape:cx="163.27949"
   inkscape:cy="29.461637"
   inkscape:window-width="1920"
   inkscape:window-height="1008"
   inkscape:window-x="0"
   inkscape:window-y="0"
   inkscape:window-maximized="1"
   inkscape:current-layer="layer1" />
 <defs
   id="defs225">
  <style
   type="text/css"
   id="style223">
   <![CDATA[
    .fil0 {fill:white}
   ]]>
  </style>
 </defs>
 <g
   inkscape:groupmode="layer"
   id="layer1"
   inkscape:label="Vrstva 0"
   transform="translate(0.97197205,2.5443349)"><rect
     style="fill:#ffffff;stroke-width:0.133769"
     id="rect1048"
     width="55.689919"
     height="26.708553"
     x="-0.97197205"
     y="-2.5443349" /></g><g
   id="Vrstva_x0020_1"
   inkscape:label="Vrstva 1"
   inkscape:groupmode="layer"
   transform="translate(0.97197205,2.5443349)">
  <metadata
   id="CorelCorpID_0Corel-Layer" />
  <rect
   class="fil0"
   x="0.16039"
   y="20.9275"
   width="53.811501"
   height="0.90041298"
   id="rect228"
   style="fill:#000000" />
  <path
   class="fil0"
   d="m 4.56768,19.6587 c -0.858712,0 -1.70929,-0.156657 -2.46146,-0.586485 C 1.409064,18.673853 0.89189,18.100225 0.5401,17.378835 0.138951,16.556219 5e-6,15.630075 5e-6,14.721925 v -9.78522 c 0,-0.909058 0.140564,-1.83709 0.54005,-2.66132 0.350309,-0.722823 0.866354,-1.2982 1.56634,-1.6936 0.7533,-0.425423 1.60347,-0.58181 2.46129,-0.58181 0.859117,0 1.72003,0.155623 2.47477,0.58181 0.701786,0.396384 1.21513,0.968979 1.56639,1.6936 0.399441,0.824234 0.540005,1.75226 0.540005,2.66132 v 1.23244 H 6.13488 V 4.936705 C 6.13488,4.575114 6.0909622,4.20116 5.953635,3.864115 5.84166,3.589415 5.671608,3.358049 5.421362,3.195863 5.164778,3.029542 4.870839,2.964407 4.567684,2.964407 c -0.2974,0 -0.580866,0.066214 -0.830842,0.231232 C 3.488754,3.359488 3.318926,3.592652 3.20403,3.864655 3.062342,4.200219 3.018469,4.575072 3.018469,4.936705 v 9.78522 c 0,0.356737 0.043873,0.732488 0.185471,1.06288 0.116964,0.272857 0.285084,0.503234 0.533127,0.669331 0.248313,0.166321 0.53488,0.226601 0.830617,0.226601 0.301356,0 0.598622,-0.05925 0.853453,-0.226826 0.250291,-0.164478 0.41859,-0.392968 0.532588,-0.668567 0.138496,-0.33498 0.181155,-0.717069 0.181155,-1.07691 v -1.21896 h 3.01397 v 1.21896 c 0,0.911261 -0.140654,1.83475 -0.540005,2.66128 -0.351702,0.727903 -0.863837,1.30117 -1.56621,1.7025 -0.75357,0.430637 -1.61502,0.586485 -2.47495,0.586485 z m 9.5548,-0.198057 h -2.97791 v -19.2626 h 2.97791 z m 12.1365,-12.1725 -2.74547,8.90026 h -1.68973 l -2.67813,-8.46418 v 11.7364 h -2.76642 v -19.2626 h 2.79514 l 3.48798,11.1194 3.58162,-11.1194 h 2.71387 v 19.2626 h -2.69885 v -12.1725 z m 12.3998,3.52884 2.84216,8.64363 h -3.222 l -2.43238,-8.11086 H 34.296 v 8.11086 h -2.93741 v -19.2761 h 4.64868 c 0.901596,0 1.83192,0.131124 2.65611,0.512719 0.715631,0.331249 1.29232,0.827965 1.69387,1.50741 0.427581,0.723318 0.586754,1.54369 0.586754,2.37651 v 2.24152 c 0,0.852779 -0.157466,1.69783 -0.586485,2.44357 -0.399216,0.694054 -0.977834,1.20489 -1.69872,1.55079 z m -4.36279,-2.31016 h 1.92281 c 0.315516,0 0.633549,-0.050346 0.915801,-0.197518 0.247909,-0.129281 0.447045,-0.316235 0.580192,-0.562481 0.147936,-0.273621 0.197248,-0.589317 0.197248,-0.897236 v -2.04346 c 0,-0.329271 -0.05273,-0.663802 -0.198102,-0.961831 C 37.584793,3.579621 37.393433,3.373383 37.134062,3.233673 36.853114,3.082366 36.534766,3.031885 36.218801,3.031885 h -1.92281 v 5.47494 z m 15.9872,7.36646 h -3.91224 l -0.690548,3.58732 h -3.05838 l 4.51724,-19.2626 h 2.36549 l 4.53082,19.2626 h -3.05838 l -0.694009,-3.58732 z m -3.37538,-2.78889 h 2.83582 l -1.42151,-7.34753 -1.41432,7.34753 z"
   id="path230"
   style="fill:#000000" />
 </g>
</svg>
