M48
; DRILL file {KiCad (5.1.12)-1} date 12/22/21 01:46:01
; FORMAT={-:-/ absolute / inch / decimal}
; #@! TF.CreationDate,2021-12-22T01:46:01+01:00
; #@! TF.GenerationSoftware,Kicad,Pcbnew,(5.1.12)-1
; #@! TF.FileFunction,Plated,1,4,PTH
FMAT,2
INCH
T1C0.0118
T2C0.0157
T3C0.0236
T4C0.0280
T5C0.0390
T6C0.0394
T7C0.0472
T8C0.0510
T9C0.1378
%
G90
G05
T1
X1.3825Y-1.9475
X1.95Y-2.603
X2.0025Y-2.2325
X2.1775Y-1.9475
X2.355Y-3.015
X2.42Y-3.075
X2.5975Y-2.29
X2.7Y-2.3625
X2.73Y-2.535
X2.745Y-3.0
X2.7875Y-2.9275
X2.8825Y-2.3925
X2.9Y-2.7675
X2.9025Y-2.4925
X2.903Y-2.5705
X2.903Y-2.6345
X2.903Y-2.6955
X2.9425Y-2.765
X3.0295Y-2.8555
X3.07Y-2.855
X3.1475Y-2.7425
X3.2425Y-2.69
X3.25Y-2.5975
X3.255Y-2.505
X3.2775Y-2.8225
X3.3075Y-2.7417
X3.355Y-2.745
X3.3846Y-2.7971
X3.3925Y-2.745
X3.415Y-2.82
X3.4515Y-2.46
X3.4808Y-2.4756
X3.49Y-2.86
X3.505Y-2.535
X3.5066Y-2.4942
X3.5725Y-2.8235
X3.575Y-2.8675
X3.5875Y-2.625
X3.6075Y-2.5875
X3.7425Y-2.8988
X3.7475Y-2.2075
X3.7775Y-2.8996
X3.8125Y-2.9
X3.82Y-2.4425
X3.8575Y-2.44
X3.88Y-2.92
X3.92Y-2.94
X4.022Y-2.227
X4.035Y-2.5425
X4.04Y-2.8726
X4.045Y-2.82
X4.0675Y-2.6225
X4.1445Y-2.765
X4.145Y-2.6975
X4.3675Y-2.795
X4.4Y-1.7075
X4.4125Y-2.485
T2
X1.2475Y-2.5275
X1.2475Y-2.5675
X1.2475Y-2.6075
X1.2475Y-2.6475
X1.2875Y-2.5275
X1.2875Y-2.5675
X1.2875Y-2.6075
X1.2875Y-2.6475
X1.3425Y-2.5225
X1.447Y-2.212
X1.4485Y-2.2765
X1.45Y-2.14
X1.615Y-2.1225
X1.6825Y-2.42
X1.6825Y-2.1825
X1.9925Y-2.3075
X2.025Y-2.495
X2.0725Y-2.6475
X2.232Y-2.2135
X2.2325Y-2.2775
X2.245Y-2.135
X2.2825Y-2.565
X2.41Y-2.1175
X2.4775Y-2.1825
X2.4775Y-2.3125
X2.5675Y-2.67
X2.6275Y-2.5425
X2.6275Y-2.5825
X2.6275Y-2.6225
X2.6275Y-2.6625
X2.6475Y-2.1775
X2.6675Y-2.5425
X2.6675Y-2.5825
X2.6675Y-2.6225
X2.6675Y-2.6625
X2.73Y-2.7825
X2.865Y-2.33
X2.915Y-2.2325
X3.01Y-1.685
X3.1325Y-2.3
X3.1335Y-2.376
X3.2525Y-1.82
X3.6975Y-1.53
X4.0075Y-1.345
X4.03Y-1.58
X4.08Y-1.9775
X4.2575Y-1.97
X4.2875Y-2.02
X4.3025Y-2.265
X4.3075Y-1.5925
X4.3075Y-1.53
X4.3075Y-1.465
X4.4125Y-2.3275
T3
X1.0575Y-3.1575
X1.2075Y-1.74
X1.2825Y-1.74
X1.3425Y-1.8125
X1.3425Y-1.8725
X1.3825Y-1.765
X1.45Y-1.765
X1.5175Y-1.765
X1.53Y-1.185
X1.5575Y-1.81
X1.5575Y-1.8725
X1.595Y-1.185
X1.63Y-1.74
X1.66Y-1.185
X1.69Y-1.74
X1.725Y-1.185
X1.7525Y-1.74
X1.7575Y-2.095
X1.8175Y-1.74
X1.8175Y-2.365
X1.88Y-1.74
X1.94Y-1.74
X1.9975Y-1.185
X2.0025Y-1.74
X2.065Y-1.74
X2.0725Y-1.185
X2.1425Y-1.815
X2.1425Y-1.875
X2.1475Y-1.185
X2.1825Y-1.765
X2.2225Y-1.185
X2.25Y-1.765
X2.3175Y-1.765
X2.3575Y-1.815
X2.3575Y-1.875
X2.4475Y-1.1825
X2.45Y-1.725
X2.5125Y-1.725
X2.52Y-1.1825
X2.5775Y-1.725
X2.5925Y-1.1825
X2.64Y-1.725
X2.665Y-1.1825
X2.7177Y-2.4523
X2.7475Y-3.1575
X2.9325Y-1.1825
X2.9325Y-1.3475
X3.0Y-1.1825
X3.0Y-1.3475
X3.003Y-1.755
X3.0045Y-1.8205
X3.065Y-1.1825
X3.065Y-1.3475
X3.0975Y-2.155
X3.13Y-1.1825
X3.13Y-1.3475
X3.175Y-2.155
X3.25Y-2.155
X3.47Y-1.4675
X3.47Y-1.53
X3.5525Y-1.91
X3.625Y-1.91
X3.6975Y-1.91
X3.7224Y-2.2801
X3.7225Y-2.355
X4.2375Y-3.1575
X4.2375Y-3.1575
X4.27Y-1.2
T4
X4.4775Y-2.52
X4.4775Y-2.57
X4.4775Y-2.62
X4.4775Y-2.67
X4.4775Y-2.72
X4.5275Y-2.52
X4.5275Y-2.57
X4.5275Y-2.62
X4.5275Y-2.67
X4.5275Y-2.72
T5
X3.3978Y-0.925
X3.575Y-0.925
X3.8478Y-0.925
X4.025Y-0.925
X4.2978Y-0.925
X4.475Y-0.925
T6
X4.5275Y-1.6975
X4.5275Y-1.7975
X4.5275Y-1.8975
X4.5275Y-2.045
X4.5275Y-2.145
X4.5275Y-2.245
X4.5275Y-2.345
T7
X1.0375Y-0.94
X1.0375Y-1.0778
X1.0375Y-1.32
X1.0375Y-1.4578
X1.0375Y-1.6975
X1.0375Y-1.8353
X1.0375Y-1.9731
X1.0375Y-2.215
X1.0375Y-2.3528
X1.0375Y-2.4906
X1.0375Y-2.73
X1.0375Y-2.8678
T8
X3.3484Y-1.023
X3.6244Y-1.023
X3.7984Y-1.023
X4.0744Y-1.023
X4.2484Y-1.023
X4.5244Y-1.023
T9
X1.2825Y-3.0525
X1.32Y-1.095
X4.4375Y-3.0525
X4.45Y-1.2475
T0
M30
