<?xml version="1.0" standalone="no"?>
 <!DOCTYPE svg PUBLIC "-//W3C//DTD SVG 1.1//EN" 
 "http://www.w3.org/Graphics/SVG/1.1/DTD/svg11.dtd"> 
<svg
  xmlns:svg="http://www.w3.org/2000/svg"
  xmlns="http://www.w3.org/2000/svg"
  xmlns:xlink="http://www.w3.org/1999/xlink"
  version="1.1"
  width="29.700220cm" height="21.000720cm" viewBox="0 0 116930 82680">
<title>SVG Picture created as MiSPiZ-F_SilkS.svg date 2021/12/22 02:56:29 </title>
  <desc>Picture generated by PCBNEW </desc>
<g style="fill:#000000; fill-opacity:1;stroke:#000000; stroke-opacity:1;
stroke-linecap:round; stroke-linejoin:round;"
 transform="translate(0 0) scale(1 1)">
</g>
<g style="fill:#000000; fill-opacity:0.0; 
stroke:#000000; stroke-width:-0.000393701; stroke-opacity:1; 
stroke-linecap:round; stroke-linejoin:round;">
</g>
<g style="fill:#000000; fill-opacity:0.0; 
stroke:#000000; stroke-width:78.7402; stroke-opacity:1; 
stroke-linecap:round; stroke-linejoin:round;">
<path d="M34100 17100
L34200 17200
" />
<path d="M29800 18500
L29500 18300
" />
<path d="M30300 18600
L29800 18500
" />
<path d="M31000 18900
L30300 18600
" />
<path d="M33100 19200
L33200 19300
" />
<path d="M43800 13900
L45600 14200
" />
<path d="M43300 13700
L43800 13900
" />
<path d="M44300 16300
L44200 16400
" />
<path d="M45260 14939
L46159 14939
" />
<path d="M46159 14939
L46159 14360
" />
<path d="M46159 14360
L45260 14360
" />
<path d="M45698 24950
L45698 27450
" />
<path d="M44351 24950
L44351 27450
" />
</g>
<g style="fill:#000000; fill-opacity:1.0; 
stroke:#000000; stroke-width:0; stroke-opacity:1; 
stroke-linecap:round; stroke-linejoin:round;">
<circle cx="44735.6" cy="24700" r="39.3701" /> 
<circle cx="44814.4" cy="24700" r="39.3701" /> 
</g>
<g style="fill:#000000; fill-opacity:0.0; 
stroke:#000000; stroke-width:78.7402; stroke-opacity:1; 
stroke-linecap:round; stroke-linejoin:round;">
<path d="M44735.6 24700 A39.3701 39.3701 0.0 0 0 44814.4 24700" />
<path d="M44814.4 24700 A39.3701 39.3701 0.0 0 0 44735.6 24700" />
<path d="M11398 27181
L11398 27418
" />
<path d="M11162 27300
L11398 27181
" />
<path d="M11398 27418
L11162 27300
" />
<path d="M8485 26292
L8485 29685
" />
<path d="M10890 27713
L10890 28264
" />
<path d="M10890 29685
L10890 29091
" />
<path d="M10890 26292
L10890 26886
" />
<path d="M7182 29685
L10890 29685
" />
<path d="M7182 26292
L7182 29685
" />
<path d="M10890 26292
L7182 26292
" />
<path d="M14895 13131
L14895 16455
" />
<path d="M22555 12119
L22555 8795
" />
<path d="M22555 16455
L22555 13131
" />
<path d="M14895 16455
L22555 16455
" />
<path d="M14895 8795
L14895 12119
" />
<path d="M22555 8795
L14895 8795
" />
<path d="M11398 22031
L11398 22268
" />
<path d="M11162 22150
L11398 22031
" />
<path d="M11398 22268
L11162 22150
" />
<path d="M8485 21142
L8485 25913
" />
<path d="M10890 23941
L10890 24492
" />
<path d="M10890 22563
L10890 23114
" />
<path d="M10890 25913
L10890 25319
" />
<path d="M10890 21142
L10890 21736
" />
<path d="M7182 25913
L10890 25913
" />
<path d="M7182 21142
L7182 25913
" />
<path d="M10890 21142
L7182 21142
" />
<path d="M24355 21595
L22645 21595
" />
<path d="M22645 23305
L24355 23305
" />
<path d="M21416 20463
L21416 21036
" />
<path d="M22133 20463
L22133 21036
" />
<path d="M13466 21036
L13466 20463
" />
<path d="M14183 21036
L14183 20463
" />
<path d="M31805 12119
L31805 8795
" />
<path d="M24145 13131
L24145 16455
" />
<path d="M24145 8795
L24145 12119
" />
<path d="M31805 8795
L24145 8795
" />
<path d="M31805 16455
L31805 13131
" />
<path d="M24145 16455
L31805 16455
" />
</g>
<g style="fill:#000000; fill-opacity:1.0; 
stroke:#000000; stroke-width:78.7402; stroke-opacity:1; 
stroke-linecap:round; stroke-linejoin:round;">
<path style="fill:#000000; fill-opacity:1.0; 
stroke:#000000; stroke-width:78.7402; stroke-opacity:1; 
stroke-linecap:round; stroke-linejoin:round;fill-rule:evenodd;"
d="M 40190,25986
40290,25986
40290,26136
40190,26136
" /> 
<path style="fill:#000000; fill-opacity:1.0; 
stroke:#000000; stroke-width:78.7402; stroke-opacity:1; 
stroke-linecap:round; stroke-linejoin:round;fill-rule:evenodd;"
d="M 40190,27954.5
40290,27954.5
40290,28104.5
40190,28104.5
" /> 
<path style="fill:#000000; fill-opacity:1.0; 
stroke:#000000; stroke-width:78.7402; stroke-opacity:1; 
stroke-linecap:round; stroke-linejoin:round;fill-rule:evenodd;"
d="M 38176.6,28840
38026.6,28840
38026.6,28740
38176.6,28740
" /> 
<path style="fill:#000000; fill-opacity:1.0; 
stroke:#000000; stroke-width:78.7402; stroke-opacity:1; 
stroke-linecap:round; stroke-linejoin:round;fill-rule:evenodd;"
d="M 36210,27757.7
36110,27757.7
36110,27907.7
36210,27907.7
" /> 
<path style="fill:#000000; fill-opacity:1.0; 
stroke:#000000; stroke-width:78.7402; stroke-opacity:1; 
stroke-linecap:round; stroke-linejoin:round;fill-rule:evenodd;"
d="M 36210,25789.2
36110,25789.2
36110,25939.2
36210,25939.2
" /> 
<path style="fill:#000000; fill-opacity:1.0; 
stroke:#000000; stroke-width:78.7402; stroke-opacity:1; 
stroke-linecap:round; stroke-linejoin:round;fill-rule:evenodd;"
d="M 37979.7,24660
37829.7,24660
37829.7,24760
37979.7,24760
" /> 
</g>
<g style="fill:#000000; fill-opacity:0.0; 
stroke:#000000; stroke-width:78.7402; stroke-opacity:1; 
stroke-linecap:round; stroke-linejoin:round;">
<path d="M40020 25092
L40020 24930
" />
<path d="M39857 28570
L40020 28570
" />
<path d="M36380 28407
L36380 28570
" />
<path d="M36542 24930
L36380 24930
" />
<path d="M40020 24930
L39857 24930
" />
<path d="M40020 28570
L40020 28407
" />
<path d="M36380 28570
L36542 28570
" />
<path d="M36380 24930
L36380 25092
" />
<path d="M30039 19579
L30039 18680
" />
<path d="M30039 18680
L29460 18680
" />
<path d="M29460 18680
L29460 19579
" />
<path d="M34235 15715
L34235 16614
" />
<path d="M34814 15715
L34235 15715
" />
<path d="M34814 16614
L34814 15715
" />
<path d="M34730 17893
L34730 17706
" />
<path d="M34319 17893
L34319 17706
" />
<path d="M29955 20668
L29955 20481
" />
<path d="M29544 20668
L29544 20481
" />
<path d="M37269 15718
L37269 15531
" />
<path d="M37680 15718
L37680 15531
" />
<path d="M37899 15680
L37899 15569
" />
<path d="M38300 15680
L38300 15569
" />
<path d="M29995 24008
L30704 24008
" />
<path d="M30704 22741
L29739 22741
" />
<path d="M11545 16514
L11545 13207
" />
<path d="M14104 16514
L14104 13207
" />
<path d="M14104 16514
L11545 16514
" />
<path d="M11398 16856
L11398 17093
" />
<path d="M11162 16975
L11398 16856
" />
<path d="M11398 17093
L11162 16975
" />
<path d="M8485 15967
L8485 20738
" />
<path d="M10890 18766
L10890 19317
" />
<path d="M10890 17388
L10890 17939
" />
<path d="M10890 20738
L10890 20144
" />
<path d="M10890 15967
L10890 16561
" />
<path d="M7182 20738
L10890 20738
" />
<path d="M7182 15967
L7182 20738
" />
<path d="M10890 15967
L7182 15967
" />
<path d="M10890 12192
L7182 12192
" />
<path d="M7182 12192
L7182 15585
" />
<path d="M7182 15585
L10890 15585
" />
<path d="M10890 12192
L10890 12786
" />
<path d="M10890 15585
L10890 14991
" />
<path d="M10890 13613
L10890 14164
" />
<path d="M8485 12192
L8485 15585
" />
<path d="M11398 13318
L11162 13200
" />
<path d="M11162 13200
L11398 13081
" />
<path d="M11398 13081
L11398 13318
" />
<path d="M10890 8392
L7182 8392
" />
<path d="M7182 8392
L7182 11785
" />
<path d="M7182 11785
L10890 11785
" />
<path d="M10890 8392
L10890 8986
" />
<path d="M10890 11785
L10890 11191
" />
<path d="M10890 9813
L10890 10364
" />
<path d="M8485 8392
L8485 11785
" />
<path d="M11398 9518
L11162 9400
" />
<path d="M11162 9400
L11398 9281
" />
<path d="M11398 9281
L11398 9518
" />
<path d="M15219 21425
L15330 21425
" />
<path d="M15219 21024
L15330 21024
" />
<path d="M26249 22544
L26249 22655
" />
<path d="M26650 22544
L26650 22655
" />
<path d="M18724 22719
L18724 22830
" />
<path d="M19125 22719
L19125 22830
" />
<path d="M19125 21330
L19125 21219
" />
<path d="M18724 21330
L18724 21219
" />
<path d="M20049 25780
L20049 25669
" />
<path d="M20450 25780
L20450 25669
" />
<path d="M23144 20999
L23255 20999
" />
<path d="M23144 21400
L23255 21400
" />
<path d="M29249 25455
L29249 25344
" />
<path d="M29650 25455
L29650 25344
" />
<path d="M36210 23072
L36210 23277
" />
<path d="M36789 23072
L36789 23277
" />
<path d="M35385 23072
L35385 23277
" />
<path d="M35964 23072
L35964 23277
" />
<path d="M33185 23097
L33185 23302
" />
<path d="M33764 23097
L33764 23302
" />
<path d="M32455 26625
L32344 26625
" />
<path d="M32455 26224
L32344 26224
" />
<path d="M35130 13450
L35019 13450
" />
<path d="M35130 13049
L35019 13049
" />
<path d="M39369 12724
L39480 12724
" />
<path d="M39369 13125
L39480 13125
" />
<path d="M25358 25036
L25358 24463
" />
<path d="M24641 25036
L24641 24463
" />
<path d="M32794 18618
L32794 18431
" />
<path d="M33205 18618
L33205 18431
" />
<path d="M39331 12044
L39518 12044
" />
<path d="M39331 12455
L39518 12455
" />
<path d="M31535 17260
L30765 17260
" />
<path d="M30765 18540
L31535 18540
" />
<path d="M29866 27295
L29866 28260
" />
<path d="M31133 28004
L31133 27295
" />
<path d="M16505 21595
L14795 21595
" />
<path d="M14795 23305
L16505 23305
" />
<path d="M31158 26154
L31158 25445
" />
<path d="M29891 25445
L29891 26410
" />
<path d="M42414 10700
L42414 10878
" />
<path d="M45314 9704
L45314 7883
" />
<path d="M45314 10878
L45314 10700
" />
<path d="M42414 10878
L45314 10878
" />
<path d="M42414 7883
L42414 9704
" />
<path d="M45314 7883
L42414 7883
" />
<path d="M37914 10700
L37914 10878
" />
<path d="M40814 9704
L40814 7883
" />
<path d="M40814 10878
L40814 10700
" />
<path d="M37914 10878
L40814 10878
" />
<path d="M37914 7883
L37914 9704
" />
<path d="M40814 7883
L37914 7883
" />
<path d="M33414 10700
L33414 10878
" />
<path d="M36314 9704
L36314 7883
" />
<path d="M36314 10878
L36314 10700
" />
<path d="M33414 10878
L36314 10878
" />
<path d="M33414 7883
L33414 9704
" />
<path d="M36314 7883
L33414 7883
" />
<path d="M39936 23900
L40513 23900
" />
<path d="M40513 23250
L39936 23250
" />
<path d="M44751 16451
L45275 16451
" />
<path d="M44751 16975
L44751 16451
" />
<path d="M44751 17475
L45798 17475
" />
<path d="M45798 17475
L45798 19498
" />
<path d="M44751 17475
L44751 19498
" />
<path d="M44751 19498
L45798 19498
" />
<path d="M44751 19926
L45275 19926
" />
<path d="M44751 20450
L44751 19926
" />
<path d="M44751 20950
L45798 20950
" />
<path d="M45798 20950
L45798 23973
" />
<path d="M44751 20950
L44751 23973
" />
<path d="M44751 23973
L45798 23973
" />
<path d="M44231 15719
L44418 15719
" />
<path d="M44231 16130
L44418 16130
" />
<path d="M44231 15094
L44418 15094
" />
<path d="M44231 15505
L44418 15505
" />
<path d="M15936 23841
L15363 23841
" />
<path d="M15936 24558
L15363 24558
" />
<path d="M40780 13125
L40669 13125
" />
<path d="M40780 12724
L40669 12724
" />
<path d="M30905 17050
L30794 17050
" />
<path d="M30905 16649
L30794 16649
" />
<path d="M31805 19125
L31694 19125
" />
<path d="M31805 18724
L31694 18724
" />
<path d="M29650 26705
L29650 26594
" />
<path d="M29249 26705
L29249 26594
" />
<path d="M41225 27330
L41225 27219
" />
<path d="M40824 27330
L40824 27219
" />
<path d="M26249 21005
L26249 20894
" />
<path d="M26650 21005
L26650 20894
" />
<path d="M35580 14150
L35469 14150
" />
<path d="M35580 13749
L35469 13749
" />
<path d="M36580 16250
L36469 16250
" />
<path d="M36580 15849
L36469 15849
" />
<path d="M43450 20127
L43450 20494
" />
<path d="M43450 21372
L43450 21005
" />
<path d="M43450 21372
L44301 21372
" />
<path d="M43450 20127
L44025 20127
" />
<path d="M43768 19905
L43581 19905
" />
<path d="M43768 19494
L43581 19494
" />
<path d="M39825 22630
L39825 22519
" />
<path d="M39424 22630
L39424 22519
" />
<path d="M41025 22630
L41025 22519
" />
<path d="M40624 22630
L40624 22519
" />
<path d="M40818 12455
L40631 12455
" />
<path d="M40818 12044
L40631 12044
" />
<path d="M35168 12705
L34981 12705
" />
<path d="M35168 12294
L34981 12294
" />
<path d="M44231 14444
L44418 14444
" />
<path d="M44231 14855
L44418 14855
" />
<path d="M45260 16214
L46159 16214
" />
<path d="M46159 16214
L46159 15635
" />
<path d="M46159 15635
L45260 15635
" />
<path d="M45260 15589
L46159 15589
" />
<path d="M46159 15589
L46159 15010
" />
<path d="M46159 15010
L45260 15010
" />
<path d="M36185 14360
L35415 14360
" />
<path d="M35415 15640
L36185 15640
" />
<path d="M18380 22681
L18380 22868
" />
<path d="M17969 22681
L17969 22868
" />
<path d="M26919 21043
L26919 20856
" />
<path d="M27330 21043
L27330 20856
" />
<path d="M17969 21368
L17969 21181
" />
<path d="M18380 21368
L18380 21181
" />
<path d="M27330 22506
L27330 22693
" />
<path d="M26919 22506
L26919 22693
" />
<path d="M33424 18580
L33424 18469
" />
<path d="M33825 18580
L33825 18469
" />
<text x="36656.3" y="19571.9"
textLength="847.207" font-size="524.934" lengthAdjust="spacingAndGlyphs"
text-anchor="middle" opacity="0">L1</text>
<path d="M36590 19553
L36403 19553
L36403 19159
" />
<path d="M36928 19553
L36703 19553
" />
<path d="M36815 19553
L36815 19159
L36778 19215
L36740 19253
L36703 19271
" />
<text x="33150" y="21271.9"
textLength="796.026" font-size="524.934" lengthAdjust="spacingAndGlyphs"
text-anchor="middle" opacity="0">L3</text>
<path d="M33084 21253
L32896 21253
L32896 20859
" />
<path d="M33178 20859
L33421 20859
L33290 21009
L33346 21009
L33384 21028
L33403 21046
L33421 21084
L33421 21178
L33403 21215
L33384 21234
L33346 21253
L33234 21253
L33196 21234
L33178 21215
" />
<text x="42500" y="28621.9"
textLength="796.026" font-size="524.934" lengthAdjust="spacingAndGlyphs"
text-anchor="middle" opacity="0">L2</text>
<path d="M42434 28603
L42246 28603
L42246 28209
" />
<path d="M42546 28246
L42565 28228
L42603 28209
L42696 28209
L42734 28228
L42753 28246
L42771 28284
L42771 28321
L42753 28378
L42528 28603
L42771 28603
" />
<text x="42850" y="13746.9"
textLength="871.016" font-size="524.934" lengthAdjust="spacingAndGlyphs"
text-anchor="middle" opacity="0">D2</text>
<path d="M42559 13728
L42559 13334
L42653 13334
L42709 13353
L42746 13390
L42765 13428
L42784 13503
L42784 13559
L42765 13634
L42746 13671
L42709 13709
L42653 13728
L42559 13728
" />
<path d="M42934 13371
L42953 13353
L42990 13334
L43084 13334
L43121 13353
L43140 13371
L43159 13409
L43159 13446
L43140 13503
L42915 13728
L43159 13728
" />
<text x="43525" y="25421.9"
textLength="777.278" font-size="524.934" lengthAdjust="spacingAndGlyphs"
text-anchor="middle" opacity="0">J7</text>
<path d="M43393 25009
L43393 25290
L43375 25346
L43337 25384
L43281 25403
L43243 25403
" />
<path d="M43543 25009
L43806 25009
L43637 25403
" />
<text x="11825" y="28271.9"
textLength="777.278" font-size="524.934" lengthAdjust="spacingAndGlyphs"
text-anchor="middle" opacity="0">J3</text>
<path d="M11693 27859
L11693 28140
L11675 28196
L11637 28234
L11581 28253
L11543 28253
" />
<path d="M11843 27859
L12087 27859
L11956 28009
L12012 28009
L12049 28028
L12068 28046
L12087 28084
L12087 28178
L12068 28215
L12049 28234
L12012 28253
L11899 28253
L11862 28234
L11843 28215
" />
<text x="44375" y="28796.9"
textLength="889.764" font-size="524.934" lengthAdjust="spacingAndGlyphs"
text-anchor="middle" opacity="0">H4</text>
<path d="M44075 28778
L44075 28384
" />
<path d="M44075 28571
L44300 28571
" />
<path d="M44300 28778
L44300 28384
" />
<path d="M44656 28515
L44656 28778
" />
<path d="M44562 28365
L44468 28646
L44712 28646
" />
<text x="14800" y="31346.9"
textLength="889.764" font-size="524.934" lengthAdjust="spacingAndGlyphs"
text-anchor="middle" opacity="0">H3</text>
<path d="M14500 31328
L14500 30934
" />
<path d="M14500 31121
L14725 31121
" />
<path d="M14725 31328
L14725 30934
" />
<path d="M14874 30934
L15118 30934
L14987 31084
L15043 31084
L15081 31103
L15099 31121
L15118 31159
L15118 31253
L15099 31290
L15081 31309
L15043 31328
L14931 31328
L14893 31309
L14874 31290
" />
<text x="13200" y="9375.2"
textLength="889.764" font-size="524.934" lengthAdjust="spacingAndGlyphs"
text-anchor="middle" opacity="0">H2</text>
<path d="M12900 9356
L12900 8962
" />
<path d="M12900 9150
L13125 9150
" />
<path d="M13125 9356
L13125 8962
" />
<path d="M13293 9000
L13312 8981
L13349 8962
L13443 8962
L13481 8981
L13499 9000
L13518 9037
L13518 9075
L13499 9131
L13274 9356
L13518 9356
" />
<text x="42825" y="11646.9"
textLength="889.764" font-size="524.934" lengthAdjust="spacingAndGlyphs"
text-anchor="middle" opacity="0">H1</text>
<path d="M42525 11628
L42525 11234
" />
<path d="M42525 11421
L42750 11421
" />
<path d="M42750 11628
L42750 11234
" />
<path d="M43143 11628
L42918 11628
" />
<path d="M43031 11628
L43031 11234
L42993 11290
L42956 11328
L42918 11346
" />
<text x="23025" y="11571.9"
textLength="871.016" font-size="524.934" lengthAdjust="spacingAndGlyphs"
text-anchor="middle" opacity="0">C1</text>
<path d="M22959 11515
L22940 11534
L22884 11553
L22846 11553
L22790 11534
L22753 11496
L22734 11459
L22715 11384
L22715 11328
L22734 11253
L22753 11215
L22790 11178
L22846 11159
L22884 11159
L22940 11178
L22959 11196
" />
<path d="M23334 11553
L23109 11553
" />
<path d="M23221 11553
L23221 11159
L23184 11215
L23146 11253
L23109 11271
" />
<text x="22175" y="11721.9"
textLength="402.325" font-size="524.934" lengthAdjust="spacingAndGlyphs"
text-anchor="middle" opacity="0">*</text>
<path d="M22175 11309
L22175 11403
" />
<path d="M22081 11365
L22175 11403
L22268 11365
" />
<path d="M22118 11478
L22175 11403
L22231 11478
" />
<text x="11800" y="23696.9"
textLength="777.278" font-size="524.934" lengthAdjust="spacingAndGlyphs"
text-anchor="middle" opacity="0">J6</text>
<path d="M11668 23284
L11668 23565
L11650 23621
L11612 23659
L11556 23678
L11518 23678
" />
<path d="M12024 23284
L11949 23284
L11912 23303
L11893 23321
L11856 23378
L11837 23453
L11837 23603
L11856 23640
L11874 23659
L11912 23678
L11987 23678
L12024 23659
L12043 23640
L12062 23603
L12062 23509
L12043 23471
L12024 23453
L11987 23434
L11912 23434
L11874 23453
L11856 23471
L11837 23509
" />
<text x="21750" y="22221.9"
textLength="889.764" font-size="524.934" lengthAdjust="spacingAndGlyphs"
text-anchor="middle" opacity="0">U2</text>
<path d="M21450 21809
L21450 22128
L21468 22165
L21487 22184
L21525 22203
L21600 22203
L21637 22184
L21656 22165
L21675 22128
L21675 21809
" />
<path d="M21843 21846
L21862 21828
L21899 21809
L21993 21809
L22031 21828
L22049 21846
L22068 21884
L22068 21921
L22049 21978
L21824 22203
L22068 22203
" />
<text x="21175" y="22321.9"
textLength="402.325" font-size="524.934" lengthAdjust="spacingAndGlyphs"
text-anchor="middle" opacity="0">*</text>
<path d="M21175 21909
L21175 22003
" />
<path d="M21081 21965
L21175 22003
L21268 21965
" />
<path d="M21118 22078
L21175 22003
L21231 22078
" />
<text x="20650" y="20796.9"
textLength="1245.97" font-size="524.934" lengthAdjust="spacingAndGlyphs"
text-anchor="middle" opacity="0">R10</text>
<path d="M20396 20778
L20265 20590
" />
<path d="M20171 20778
L20171 20384
L20321 20384
L20359 20403
L20378 20421
L20396 20459
L20396 20515
L20378 20553
L20359 20571
L20321 20590
L20171 20590
" />
<path d="M20771 20778
L20546 20778
" />
<path d="M20659 20778
L20659 20384
L20621 20440
L20584 20478
L20546 20496
" />
<path d="M21015 20384
L21053 20384
L21090 20403
L21109 20421
L21128 20459
L21146 20534
L21146 20628
L21128 20703
L21109 20740
L21090 20759
L21053 20778
L21015 20778
L20978 20759
L20959 20740
L20940 20703
L20921 20628
L20921 20534
L20940 20459
L20959 20421
L20978 20403
L21015 20384
" />
<text x="12700" y="20946.9"
textLength="1245.97" font-size="524.934" lengthAdjust="spacingAndGlyphs"
text-anchor="middle" opacity="0">R14</text>
<path d="M12446 20928
L12315 20740
" />
<path d="M12221 20928
L12221 20534
L12371 20534
L12409 20553
L12428 20571
L12446 20609
L12446 20665
L12428 20703
L12409 20721
L12371 20740
L12221 20740
" />
<path d="M12821 20928
L12596 20928
" />
<path d="M12709 20928
L12709 20534
L12671 20590
L12634 20628
L12596 20646
" />
<path d="M13159 20665
L13159 20928
" />
<path d="M13065 20515
L12971 20796
L13215 20796
" />
<text x="23675" y="14096.9"
textLength="871.016" font-size="524.934" lengthAdjust="spacingAndGlyphs"
text-anchor="middle" opacity="0">C2</text>
<path d="M23609 14040
L23590 14059
L23534 14078
L23496 14078
L23440 14059
L23403 14021
L23384 13984
L23365 13909
L23365 13853
L23384 13778
L23403 13740
L23440 13703
L23496 13684
L23534 13684
L23590 13703
L23609 13721
" />
<path d="M23759 13721
L23778 13703
L23815 13684
L23909 13684
L23946 13703
L23965 13721
L23984 13759
L23984 13796
L23965 13853
L23740 14078
L23984 14078
" />
<text x="24500" y="11696.9"
textLength="402.325" font-size="524.934" lengthAdjust="spacingAndGlyphs"
text-anchor="middle" opacity="0">*</text>
<path d="M24500 11284
L24500 11378
" />
<path d="M24406 11340
L24500 11378
L24593 11340
" />
<path d="M24443 11453
L24500 11378
L24556 11453
" />
<text x="41250" y="25171.9"
textLength="1264.72" font-size="524.934" lengthAdjust="spacingAndGlyphs"
text-anchor="middle" opacity="0">U10</text>
<path d="M40762 24759
L40762 25078
L40781 25115
L40800 25134
L40837 25153
L40912 25153
L40950 25134
L40968 25115
L40987 25078
L40987 24759
" />
<path d="M41381 25153
L41156 25153
" />
<path d="M41268 25153
L41268 24759
L41231 24815
L41193 24853
L41156 24871
" />
<path d="M41624 24759
L41662 24759
L41699 24778
L41718 24796
L41737 24834
L41756 24909
L41756 25003
L41737 25078
L41718 25115
L41699 25134
L41662 25153
L41624 25153
L41587 25134
L41568 25115
L41549 25078
L41531 25003
L41531 24909
L41549 24834
L41568 24796
L41587 24778
L41624 24759
" />
<g transform="rotate(-90 40550 24975)">
<text x="40550" y="25171.9"
textLength="402.325" font-size="524.934" lengthAdjust="spacingAndGlyphs"
text-anchor="middle" opacity="0">*</text>
</g>
<path d="M40334 24975
L40428 24975
" />
<path d="M40390 25068
L40428 24975
L40390 24881
" />
<path d="M40503 25031
L40428 24975
L40503 24918
" />
<text x="29000" y="19396.9"
textLength="871.016" font-size="524.934" lengthAdjust="spacingAndGlyphs"
text-anchor="middle" opacity="0">D5</text>
<path d="M28709 19378
L28709 18984
L28803 18984
L28859 19003
L28896 19040
L28915 19078
L28934 19153
L28934 19209
L28915 19284
L28896 19321
L28859 19359
L28803 19378
L28709 19378
" />
<path d="M29290 18984
L29103 18984
L29084 19171
L29103 19153
L29140 19134
L29234 19134
L29271 19153
L29290 19171
L29309 19209
L29309 19303
L29290 19340
L29271 19359
L29234 19378
L29140 19378
L29103 19359
L29084 19340
" />
<text x="33700" y="16396.9"
textLength="871.016" font-size="524.934" lengthAdjust="spacingAndGlyphs"
text-anchor="middle" opacity="0">D1</text>
<path d="M33409 16378
L33409 15984
L33503 15984
L33559 16003
L33596 16040
L33615 16078
L33634 16153
L33634 16209
L33615 16284
L33596 16321
L33559 16359
L33503 16378
L33409 16378
" />
<path d="M34009 16378
L33784 16378
" />
<path d="M33896 16378
L33896 15984
L33859 16040
L33821 16078
L33784 16096
" />
<text x="33700" y="17096.9"
textLength="871.016" font-size="524.934" lengthAdjust="spacingAndGlyphs"
text-anchor="middle" opacity="0">R5</text>
<path d="M33634 17078
L33503 16890
" />
<path d="M33409 17078
L33409 16684
L33559 16684
L33596 16703
L33615 16721
L33634 16759
L33634 16815
L33615 16853
L33596 16871
L33559 16890
L33409 16890
" />
<path d="M33990 16684
L33803 16684
L33784 16871
L33803 16853
L33840 16834
L33934 16834
L33971 16853
L33990 16871
L34009 16909
L34009 17003
L33990 17040
L33971 17059
L33934 17078
L33840 17078
L33803 17059
L33784 17040
" />
<text x="28750" y="20746.9"
textLength="1245.97" font-size="524.934" lengthAdjust="spacingAndGlyphs"
text-anchor="middle" opacity="0">R27</text>
<path d="M28496 20728
L28365 20540
" />
<path d="M28271 20728
L28271 20334
L28421 20334
L28459 20353
L28478 20371
L28496 20409
L28496 20465
L28478 20503
L28459 20521
L28421 20540
L28271 20540
" />
<path d="M28646 20371
L28665 20353
L28703 20334
L28796 20334
L28834 20353
L28853 20371
L28871 20409
L28871 20446
L28853 20503
L28628 20728
L28871 20728
" />
<path d="M29003 20334
L29265 20334
L29096 20728
" />
<text x="37475" y="14471.9"
textLength="871.016" font-size="524.934" lengthAdjust="spacingAndGlyphs"
text-anchor="middle" opacity="0">R3</text>
<path d="M37409 14453
L37278 14265
" />
<path d="M37184 14453
L37184 14059
L37334 14059
L37371 14078
L37390 14096
L37409 14134
L37409 14190
L37390 14228
L37371 14246
L37334 14265
L37184 14265
" />
<path d="M37540 14059
L37784 14059
L37653 14209
L37709 14209
L37746 14228
L37765 14246
L37784 14284
L37784 14378
L37765 14415
L37746 14434
L37709 14453
L37596 14453
L37559 14434
L37540 14415
" />
<text x="38100" y="14946.9"
textLength="871.016" font-size="524.934" lengthAdjust="spacingAndGlyphs"
text-anchor="middle" opacity="0">C7</text>
<path d="M38034 14890
L38015 14909
L37959 14928
L37921 14928
L37865 14909
L37828 14871
L37809 14834
L37790 14759
L37790 14703
L37809 14628
L37828 14590
L37865 14553
L37921 14534
L37959 14534
L38015 14553
L38034 14571
" />
<path d="M38165 14534
L38428 14534
L38259 14928
" />
<text x="30300" y="22430.1"
textLength="1264.72" font-size="524.934" lengthAdjust="spacingAndGlyphs"
text-anchor="middle" opacity="0">U13</text>
<path d="M29812 22017
L29812 22336
L29831 22373
L29850 22392
L29887 22411
L29962 22411
L30000 22392
L30018 22373
L30037 22336
L30037 22017
" />
<path d="M30431 22411
L30206 22411
" />
<path d="M30318 22411
L30318 22017
L30281 22073
L30243 22111
L30206 22130
" />
<path d="M30562 22017
L30806 22017
L30674 22167
L30731 22167
L30768 22186
L30787 22205
L30806 22242
L30806 22336
L30787 22373
L30768 22392
L30731 22411
L30618 22411
L30581 22392
L30562 22373
" />
<text x="13800" y="17146.9"
textLength="871.016" font-size="524.934" lengthAdjust="spacingAndGlyphs"
text-anchor="middle" opacity="0">D7</text>
<path d="M13509 17128
L13509 16734
L13603 16734
L13659 16753
L13696 16790
L13715 16828
L13734 16903
L13734 16959
L13715 17034
L13696 17071
L13659 17109
L13603 17128
L13509 17128
" />
<path d="M13865 16734
L14128 16734
L13959 17128
" />
<text x="11725" y="19246.9"
textLength="777.278" font-size="524.934" lengthAdjust="spacingAndGlyphs"
text-anchor="middle" opacity="0">J5</text>
<path d="M11593 18834
L11593 19115
L11575 19171
L11537 19209
L11481 19228
L11443 19228
" />
<path d="M11968 18834
L11781 18834
L11762 19021
L11781 19003
L11818 18984
L11912 18984
L11949 19003
L11968 19021
L11987 19059
L11987 19153
L11968 19190
L11949 19209
L11912 19228
L11818 19228
L11781 19209
L11762 19190
" />
<text x="11700" y="12496.9"
textLength="777.278" font-size="524.934" lengthAdjust="spacingAndGlyphs"
text-anchor="middle" opacity="0">J2</text>
<path d="M11568 12084
L11568 12365
L11550 12421
L11512 12459
L11456 12478
L11418 12478
" />
<path d="M11737 12121
L11756 12103
L11793 12084
L11887 12084
L11924 12103
L11943 12121
L11962 12159
L11962 12196
L11943 12253
L11718 12478
L11962 12478
" />
<text x="11950" y="9396.85"
textLength="777.278" font-size="524.934" lengthAdjust="spacingAndGlyphs"
text-anchor="middle" opacity="0">J1</text>
<path d="M11818 8984
L11818 9265
L11800 9321
L11762 9359
L11706 9378
L11668 9378
" />
<path d="M12212 9378
L11987 9378
" />
<path d="M12099 9378
L12099 8984
L12062 9040
L12024 9078
L11987 9096
" />
<text x="15275" y="20796.9"
textLength="1245.97" font-size="524.934" lengthAdjust="spacingAndGlyphs"
text-anchor="middle" opacity="0">C12</text>
<path d="M15021 20740
L15003 20759
L14946 20778
L14909 20778
L14853 20759
L14815 20721
L14796 20684
L14778 20609
L14778 20553
L14796 20478
L14815 20440
L14853 20403
L14909 20384
L14946 20384
L15003 20403
L15021 20421
" />
<path d="M15396 20778
L15171 20778
" />
<path d="M15284 20778
L15284 20384
L15246 20440
L15209 20478
L15171 20496
" />
<path d="M15546 20421
L15565 20403
L15603 20384
L15696 20384
L15734 20403
L15753 20421
L15771 20459
L15771 20496
L15753 20553
L15528 20778
L15771 20778
" />
<text x="25400" y="22646.9"
textLength="1245.97" font-size="524.934" lengthAdjust="spacingAndGlyphs"
text-anchor="middle" opacity="0">C14</text>
<path d="M25146 22590
L25128 22609
L25071 22628
L25034 22628
L24978 22609
L24940 22571
L24921 22534
L24903 22459
L24903 22403
L24921 22328
L24940 22290
L24978 22253
L25034 22234
L25071 22234
L25128 22253
L25146 22271
" />
<path d="M25521 22628
L25296 22628
" />
<path d="M25409 22628
L25409 22234
L25371 22290
L25334 22328
L25296 22346
" />
<path d="M25859 22365
L25859 22628
" />
<path d="M25765 22215
L25671 22496
L25915 22496
" />
<text x="19825" y="22896.9"
textLength="1245.97" font-size="524.934" lengthAdjust="spacingAndGlyphs"
text-anchor="middle" opacity="0">C16</text>
<path d="M19571 22840
L19553 22859
L19496 22878
L19459 22878
L19403 22859
L19365 22821
L19346 22784
L19328 22709
L19328 22653
L19346 22578
L19365 22540
L19403 22503
L19459 22484
L19496 22484
L19553 22503
L19571 22521
" />
<path d="M19946 22878
L19721 22878
" />
<path d="M19834 22878
L19834 22484
L19796 22540
L19759 22578
L19721 22596
" />
<path d="M20284 22484
L20209 22484
L20171 22503
L20153 22521
L20115 22578
L20096 22653
L20096 22803
L20115 22840
L20134 22859
L20171 22878
L20246 22878
L20284 22859
L20303 22840
L20321 22803
L20321 22709
L20303 22671
L20284 22653
L20246 22634
L20171 22634
L20134 22653
L20115 22671
L20096 22709
" />
<text x="19850" y="21446.9"
textLength="1245.97" font-size="524.934" lengthAdjust="spacingAndGlyphs"
text-anchor="middle" opacity="0">C17</text>
<path d="M19596 21390
L19578 21409
L19521 21428
L19484 21428
L19428 21409
L19390 21371
L19371 21334
L19353 21259
L19353 21203
L19371 21128
L19390 21090
L19428 21053
L19484 21034
L19521 21034
L19578 21053
L19596 21071
" />
<path d="M19971 21428
L19746 21428
" />
<path d="M19859 21428
L19859 21034
L19821 21090
L19784 21128
L19746 21146
" />
<path d="M20103 21034
L20365 21034
L20196 21428
" />
<text x="19300" y="25746.9"
textLength="1245.97" font-size="524.934" lengthAdjust="spacingAndGlyphs"
text-anchor="middle" opacity="0">C20</text>
<path d="M19046 25690
L19028 25709
L18971 25728
L18934 25728
L18878 25709
L18840 25671
L18821 25634
L18803 25559
L18803 25503
L18821 25428
L18840 25390
L18878 25353
L18934 25334
L18971 25334
L19028 25353
L19046 25371
" />
<path d="M19196 25371
L19215 25353
L19253 25334
L19346 25334
L19384 25353
L19403 25371
L19421 25409
L19421 25446
L19403 25503
L19178 25728
L19421 25728
" />
<path d="M19665 25334
L19703 25334
L19740 25353
L19759 25371
L19778 25409
L19796 25484
L19796 25578
L19778 25653
L19759 25690
L19740 25709
L19703 25728
L19665 25728
L19628 25709
L19609 25690
L19590 25653
L19571 25578
L19571 25484
L19590 25409
L19609 25371
L19628 25353
L19665 25334
" />
<text x="23200" y="20796.9"
textLength="1245.97" font-size="524.934" lengthAdjust="spacingAndGlyphs"
text-anchor="middle" opacity="0">C24</text>
<path d="M22946 20740
L22928 20759
L22871 20778
L22834 20778
L22778 20759
L22740 20721
L22721 20684
L22703 20609
L22703 20553
L22721 20478
L22740 20440
L22778 20403
L22834 20384
L22871 20384
L22928 20403
L22946 20421
" />
<path d="M23096 20421
L23115 20403
L23153 20384
L23246 20384
L23284 20403
L23303 20421
L23321 20459
L23321 20496
L23303 20553
L23078 20778
L23321 20778
" />
<path d="M23659 20515
L23659 20778
" />
<path d="M23565 20365
L23471 20646
L23715 20646
" />
<text x="28300" y="25546.9"
textLength="1245.97" font-size="524.934" lengthAdjust="spacingAndGlyphs"
text-anchor="middle" opacity="0">C64</text>
<path d="M28046 25490
L28028 25509
L27971 25528
L27934 25528
L27878 25509
L27840 25471
L27821 25434
L27803 25359
L27803 25303
L27821 25228
L27840 25190
L27878 25153
L27934 25134
L27971 25134
L28028 25153
L28046 25171
" />
<path d="M28384 25134
L28309 25134
L28271 25153
L28253 25171
L28215 25228
L28196 25303
L28196 25453
L28215 25490
L28234 25509
L28271 25528
L28346 25528
L28384 25509
L28403 25490
L28421 25453
L28421 25359
L28403 25321
L28384 25303
L28346 25284
L28271 25284
L28234 25303
L28215 25321
L28196 25359
" />
<path d="M28759 25265
L28759 25528
" />
<path d="M28665 25115
L28571 25396
L28815 25396
" />
<text x="36800" y="24496.9"
textLength="1245.97" font-size="524.934" lengthAdjust="spacingAndGlyphs"
text-anchor="middle" opacity="0">C33</text>
<path d="M36546 24440
L36528 24459
L36471 24478
L36434 24478
L36378 24459
L36340 24421
L36321 24384
L36303 24309
L36303 24253
L36321 24178
L36340 24140
L36378 24103
L36434 24084
L36471 24084
L36528 24103
L36546 24121
" />
<path d="M36678 24084
L36921 24084
L36790 24234
L36846 24234
L36884 24253
L36903 24271
L36921 24309
L36921 24403
L36903 24440
L36884 24459
L36846 24478
L36734 24478
L36696 24459
L36678 24440
" />
<path d="M37053 24084
L37296 24084
L37165 24234
L37221 24234
L37259 24253
L37278 24271
L37296 24309
L37296 24403
L37278 24440
L37259 24459
L37221 24478
L37109 24478
L37071 24459
L37053 24440
" />
<text x="35550" y="24496.9"
textLength="1245.97" font-size="524.934" lengthAdjust="spacingAndGlyphs"
text-anchor="middle" opacity="0">C39</text>
<path d="M35296 24440
L35278 24459
L35221 24478
L35184 24478
L35128 24459
L35090 24421
L35071 24384
L35053 24309
L35053 24253
L35071 24178
L35090 24140
L35128 24103
L35184 24084
L35221 24084
L35278 24103
L35296 24121
" />
<path d="M35428 24084
L35671 24084
L35540 24234
L35596 24234
L35634 24253
L35653 24271
L35671 24309
L35671 24403
L35653 24440
L35634 24459
L35596 24478
L35484 24478
L35446 24459
L35428 24440
" />
<path d="M35859 24478
L35934 24478
L35971 24459
L35990 24440
L36028 24384
L36046 24309
L36046 24159
L36028 24121
L36009 24103
L35971 24084
L35896 24084
L35859 24103
L35840 24121
L35821 24159
L35821 24253
L35840 24290
L35859 24309
L35896 24328
L35971 24328
L36009 24309
L36028 24290
L36046 24253
" />
<text x="33450" y="24546.9"
textLength="1245.97" font-size="524.934" lengthAdjust="spacingAndGlyphs"
text-anchor="middle" opacity="0">C50</text>
<path d="M33196 24490
L33178 24509
L33121 24528
L33084 24528
L33028 24509
L32990 24471
L32971 24434
L32953 24359
L32953 24303
L32971 24228
L32990 24190
L33028 24153
L33084 24134
L33121 24134
L33178 24153
L33196 24171
" />
<path d="M33553 24134
L33365 24134
L33346 24321
L33365 24303
L33403 24284
L33496 24284
L33534 24303
L33553 24321
L33571 24359
L33571 24453
L33553 24490
L33534 24509
L33496 24528
L33403 24528
L33365 24509
L33346 24490
" />
<path d="M33815 24134
L33853 24134
L33890 24153
L33909 24171
L33928 24209
L33946 24284
L33946 24378
L33928 24453
L33909 24490
L33890 24509
L33853 24528
L33815 24528
L33778 24509
L33759 24490
L33740 24453
L33721 24378
L33721 24284
L33740 24209
L33759 24171
L33778 24153
L33815 24134
" />
<text x="33600" y="26646.9"
textLength="1245.97" font-size="524.934" lengthAdjust="spacingAndGlyphs"
text-anchor="middle" opacity="0">C22</text>
<path d="M33346 26590
L33328 26609
L33271 26628
L33234 26628
L33178 26609
L33140 26571
L33121 26534
L33103 26459
L33103 26403
L33121 26328
L33140 26290
L33178 26253
L33234 26234
L33271 26234
L33328 26253
L33346 26271
" />
<path d="M33496 26271
L33515 26253
L33553 26234
L33646 26234
L33684 26253
L33703 26271
L33721 26309
L33721 26346
L33703 26403
L33478 26628
L33721 26628
" />
<path d="M33871 26271
L33890 26253
L33928 26234
L34021 26234
L34059 26253
L34078 26271
L34096 26309
L34096 26346
L34078 26403
L33853 26628
L34096 26628
" />
<text x="33900" y="13446.9"
textLength="1245.97" font-size="524.934" lengthAdjust="spacingAndGlyphs"
text-anchor="middle" opacity="0">C51</text>
<path d="M33646 13390
L33628 13409
L33571 13428
L33534 13428
L33478 13409
L33440 13371
L33421 13334
L33403 13259
L33403 13203
L33421 13128
L33440 13090
L33478 13053
L33534 13034
L33571 13034
L33628 13053
L33646 13071
" />
<path d="M34003 13034
L33815 13034
L33796 13221
L33815 13203
L33853 13184
L33946 13184
L33984 13203
L34003 13221
L34021 13259
L34021 13353
L34003 13390
L33984 13409
L33946 13428
L33853 13428
L33815 13409
L33796 13390
" />
<path d="M34396 13428
L34171 13428
" />
<path d="M34284 13428
L34284 13034
L34246 13090
L34209 13128
L34171 13146
" />
<text x="36825" y="13096.9"
textLength="1245.97" font-size="524.934" lengthAdjust="spacingAndGlyphs"
text-anchor="middle" opacity="0">C52</text>
<path d="M36571 13040
L36553 13059
L36496 13078
L36459 13078
L36403 13059
L36365 13021
L36346 12984
L36328 12909
L36328 12853
L36346 12778
L36365 12740
L36403 12703
L36459 12684
L36496 12684
L36553 12703
L36571 12721
" />
<path d="M36928 12684
L36740 12684
L36721 12871
L36740 12853
L36778 12834
L36871 12834
L36909 12853
L36928 12871
L36946 12909
L36946 13003
L36928 13040
L36909 13059
L36871 13078
L36778 13078
L36740 13059
L36721 13040
" />
<path d="M37096 12721
L37115 12703
L37153 12684
L37246 12684
L37284 12703
L37303 12721
L37321 12759
L37321 12796
L37303 12853
L37078 13078
L37321 13078
" />
<text x="23700" y="24946.9"
textLength="1245.97" font-size="524.934" lengthAdjust="spacingAndGlyphs"
text-anchor="middle" opacity="0">R11</text>
<path d="M23446 24928
L23315 24740
" />
<path d="M23221 24928
L23221 24534
L23371 24534
L23409 24553
L23428 24571
L23446 24609
L23446 24665
L23428 24703
L23409 24721
L23371 24740
L23221 24740
" />
<path d="M23821 24928
L23596 24928
" />
<path d="M23709 24928
L23709 24534
L23671 24590
L23634 24628
L23596 24646
" />
<path d="M24196 24928
L23971 24928
" />
<path d="M24084 24928
L24084 24534
L24046 24590
L24009 24628
L23971 24646
" />
<text x="33700" y="19896.9"
textLength="1245.97" font-size="524.934" lengthAdjust="spacingAndGlyphs"
text-anchor="middle" opacity="0">R25</text>
<path d="M33446 19878
L33315 19690
" />
<path d="M33221 19878
L33221 19484
L33371 19484
L33409 19503
L33428 19521
L33446 19559
L33446 19615
L33428 19653
L33409 19671
L33371 19690
L33221 19690
" />
<path d="M33596 19521
L33615 19503
L33653 19484
L33746 19484
L33784 19503
L33803 19521
L33821 19559
L33821 19596
L33803 19653
L33578 19878
L33821 19878
" />
<path d="M34178 19484
L33990 19484
L33971 19671
L33990 19653
L34028 19634
L34121 19634
L34159 19653
L34178 19671
L34196 19709
L34196 19803
L34178 19840
L34159 19859
L34121 19878
L34028 19878
L33990 19859
L33971 19840
" />
<text x="36825" y="12396.9"
textLength="1245.97" font-size="524.934" lengthAdjust="spacingAndGlyphs"
text-anchor="middle" opacity="0">R21</text>
<path d="M36571 12378
L36440 12190
" />
<path d="M36346 12378
L36346 11984
L36496 11984
L36534 12003
L36553 12021
L36571 12059
L36571 12115
L36553 12153
L36534 12171
L36496 12190
L36346 12190
" />
<path d="M36721 12021
L36740 12003
L36778 11984
L36871 11984
L36909 12003
L36928 12021
L36946 12059
L36946 12096
L36928 12153
L36703 12378
L36946 12378
" />
<path d="M37321 12378
L37096 12378
" />
<path d="M37209 12378
L37209 11984
L37171 12040
L37134 12078
L37096 12096
" />
<text x="28900" y="17296.9"
textLength="1264.72" font-size="524.934" lengthAdjust="spacingAndGlyphs"
text-anchor="middle" opacity="0">U11</text>
<path d="M28412 16884
L28412 17203
L28431 17240
L28450 17259
L28487 17278
L28562 17278
L28600 17259
L28618 17240
L28637 17203
L28637 16884
" />
<path d="M29031 17278
L28806 17278
" />
<path d="M28918 17278
L28918 16884
L28881 16940
L28843 16978
L28806 16996
" />
<path d="M29406 17278
L29181 17278
" />
<path d="M29293 17278
L29293 16884
L29256 16940
L29218 16978
L29181 16996
" />
<text x="29700" y="17496.9"
textLength="402.325" font-size="524.934" lengthAdjust="spacingAndGlyphs"
text-anchor="middle" opacity="0">*</text>
<path d="M29700 17084
L29700 17178
" />
<path d="M29606 17140
L29700 17178
L29793 17140
" />
<path d="M29643 17253
L29700 17178
L29756 17253
" />
<text x="30500" y="29146.9"
textLength="1264.72" font-size="524.934" lengthAdjust="spacingAndGlyphs"
text-anchor="middle" opacity="0">U12</text>
<path d="M30012 28734
L30012 29053
L30031 29090
L30050 29109
L30087 29128
L30162 29128
L30200 29109
L30218 29090
L30237 29053
L30237 28734
" />
<path d="M30631 29128
L30406 29128
" />
<path d="M30518 29128
L30518 28734
L30481 28790
L30443 28828
L30406 28846
" />
<path d="M30781 28771
L30799 28753
L30837 28734
L30931 28734
L30968 28753
L30987 28771
L31006 28809
L31006 28846
L30987 28903
L30762 29128
L31006 29128
" />
<text x="13850" y="22221.9"
textLength="889.764" font-size="524.934" lengthAdjust="spacingAndGlyphs"
text-anchor="middle" opacity="0">U9</text>
<path d="M13550 21809
L13550 22128
L13568 22165
L13587 22184
L13625 22203
L13700 22203
L13737 22184
L13756 22165
L13775 22128
L13775 21809
" />
<path d="M13981 22203
L14056 22203
L14093 22184
L14112 22165
L14149 22109
L14168 22034
L14168 21884
L14149 21846
L14131 21828
L14093 21809
L14018 21809
L13981 21828
L13962 21846
L13943 21884
L13943 21978
L13962 22015
L13981 22034
L14018 22053
L14093 22053
L14131 22034
L14149 22015
L14168 21978
" />
<text x="13275" y="22321.9"
textLength="402.325" font-size="524.934" lengthAdjust="spacingAndGlyphs"
text-anchor="middle" opacity="0">*</text>
<path d="M13275 21909
L13275 22003
" />
<path d="M13181 21965
L13275 22003
L13368 21965
" />
<path d="M13218 22078
L13275 22003
L13331 22078
" />
<text x="30525" y="24796.9"
textLength="871.016" font-size="524.934" lengthAdjust="spacingAndGlyphs"
text-anchor="middle" opacity="0">D6</text>
<path d="M30234 24778
L30234 24384
L30328 24384
L30384 24403
L30421 24440
L30440 24478
L30459 24553
L30459 24609
L30440 24684
L30421 24721
L30384 24759
L30328 24778
L30234 24778
" />
<path d="M30796 24384
L30721 24384
L30684 24403
L30665 24421
L30628 24478
L30609 24553
L30609 24703
L30628 24740
L30646 24759
L30684 24778
L30759 24778
L30796 24759
L30815 24740
L30834 24703
L30834 24609
L30815 24571
L30796 24553
L30759 24534
L30684 24534
L30646 24553
L30628 24571
L30609 24609
" />
<text x="41625" y="9446.85"
textLength="852.269" font-size="524.934" lengthAdjust="spacingAndGlyphs"
text-anchor="middle" opacity="0">S3</text>
<path d="M41325 9409
L41381 9428
L41475 9428
L41512 9409
L41531 9390
L41550 9353
L41550 9315
L41531 9278
L41512 9259
L41475 9240
L41400 9221
L41362 9203
L41343 9184
L41325 9146
L41325 9109
L41343 9071
L41362 9053
L41400 9034
L41493 9034
L41550 9053
" />
<path d="M41681 9034
L41924 9034
L41793 9184
L41849 9184
L41887 9203
L41906 9221
L41924 9259
L41924 9353
L41906 9390
L41887 9409
L41849 9428
L41737 9428
L41699 9409
L41681 9390
" />
<text x="37175" y="9446.85"
textLength="852.269" font-size="524.934" lengthAdjust="spacingAndGlyphs"
text-anchor="middle" opacity="0">S2</text>
<path d="M36875 9409
L36931 9428
L37025 9428
L37062 9409
L37081 9390
L37100 9353
L37100 9315
L37081 9278
L37062 9259
L37025 9240
L36950 9221
L36912 9203
L36893 9184
L36875 9146
L36875 9109
L36893 9071
L36912 9053
L36950 9034
L37043 9034
L37100 9053
" />
<path d="M37249 9071
L37268 9053
L37306 9034
L37399 9034
L37437 9053
L37456 9071
L37474 9109
L37474 9146
L37456 9203
L37231 9428
L37474 9428
" />
<text x="32750" y="9446.85"
textLength="852.269" font-size="524.934" lengthAdjust="spacingAndGlyphs"
text-anchor="middle" opacity="0">S1</text>
<path d="M32450 9409
L32506 9428
L32600 9428
L32637 9409
L32656 9390
L32675 9353
L32675 9315
L32656 9278
L32637 9259
L32600 9240
L32525 9221
L32487 9203
L32468 9184
L32450 9146
L32450 9109
L32468 9071
L32487 9053
L32525 9034
L32618 9034
L32675 9053
" />
<path d="M33049 9428
L32824 9428
" />
<path d="M32937 9428
L32937 9034
L32899 9090
L32862 9128
L32824 9146
" />
<text x="40225" y="24521.9"
textLength="814.773" font-size="524.934" lengthAdjust="spacingAndGlyphs"
text-anchor="middle" opacity="0">Y1</text>
<path d="M40037 24315
L40037 24503
" />
<path d="M39906 24109
L40037 24315
L40168 24109
" />
<path d="M40506 24503
L40281 24503
" />
<path d="M40393 24503
L40393 24109
L40356 24165
L40318 24203
L40281 24221
" />
<text x="40225" y="23771.9"
textLength="402.325" font-size="524.934" lengthAdjust="spacingAndGlyphs"
text-anchor="middle" opacity="0">*</text>
<path d="M40225 23359
L40225 23453
" />
<path d="M40131 23415
L40225 23453
L40318 23415
" />
<path d="M40168 23528
L40225 23453
L40281 23528
" />
<text x="44200" y="19196.9"
textLength="777.278" font-size="524.934" lengthAdjust="spacingAndGlyphs"
text-anchor="middle" opacity="0">J8</text>
<path d="M44068 18784
L44068 19065
L44050 19121
L44012 19159
L43956 19178
L43918 19178
" />
<path d="M44312 18953
L44274 18934
L44256 18915
L44237 18878
L44237 18859
L44256 18821
L44274 18803
L44312 18784
L44387 18784
L44424 18803
L44443 18821
L44462 18859
L44462 18878
L44443 18915
L44424 18934
L44387 18953
L44312 18953
L44274 18971
L44256 18990
L44237 19028
L44237 19103
L44256 19140
L44274 19159
L44312 19178
L44387 19178
L44424 19159
L44443 19140
L44462 19103
L44462 19028
L44443 18990
L44424 18971
L44387 18953
" />
<text x="44250" y="22796.9"
textLength="777.278" font-size="524.934" lengthAdjust="spacingAndGlyphs"
text-anchor="middle" opacity="0">J4</text>
<path d="M44118 22384
L44118 22665
L44100 22721
L44062 22759
L44006 22778
L43968 22778
" />
<path d="M44474 22515
L44474 22778
" />
<path d="M44381 22365
L44287 22646
L44531 22646
" />
<text x="44100" y="18396.9"
textLength="1245.97" font-size="524.934" lengthAdjust="spacingAndGlyphs"
text-anchor="middle" opacity="0">R22</text>
<path d="M43846 18378
L43715 18190
" />
<path d="M43621 18378
L43621 17984
L43771 17984
L43809 18003
L43828 18021
L43846 18059
L43846 18115
L43828 18153
L43809 18171
L43771 18190
L43621 18190
" />
<path d="M43996 18021
L44015 18003
L44053 17984
L44146 17984
L44184 18003
L44203 18021
L44221 18059
L44221 18096
L44203 18153
L43978 18378
L44221 18378
" />
<path d="M44371 18021
L44390 18003
L44428 17984
L44521 17984
L44559 18003
L44578 18021
L44596 18059
L44596 18096
L44578 18153
L44353 18378
L44596 18378
" />
<text x="44100" y="17796.9"
textLength="1245.97" font-size="524.934" lengthAdjust="spacingAndGlyphs"
text-anchor="middle" opacity="0">R20</text>
<path d="M43846 17778
L43715 17590
" />
<path d="M43621 17778
L43621 17384
L43771 17384
L43809 17403
L43828 17421
L43846 17459
L43846 17515
L43828 17553
L43809 17571
L43771 17590
L43621 17590
" />
<path d="M43996 17421
L44015 17403
L44053 17384
L44146 17384
L44184 17403
L44203 17421
L44221 17459
L44221 17496
L44203 17553
L43978 17778
L44221 17778
" />
<path d="M44465 17384
L44503 17384
L44540 17403
L44559 17421
L44578 17459
L44596 17534
L44596 17628
L44578 17703
L44559 17740
L44540 17759
L44503 17778
L44465 17778
L44428 17759
L44409 17740
L44390 17703
L44371 17628
L44371 17534
L44390 17459
L44409 17421
L44428 17403
L44465 17384
" />
<text x="15650" y="25246.9"
textLength="1245.97" font-size="524.934" lengthAdjust="spacingAndGlyphs"
text-anchor="middle" opacity="0">R15</text>
<path d="M15396 25228
L15265 25040
" />
<path d="M15171 25228
L15171 24834
L15321 24834
L15359 24853
L15378 24871
L15396 24909
L15396 24965
L15378 25003
L15359 25021
L15321 25040
L15171 25040
" />
<path d="M15771 25228
L15546 25228
" />
<path d="M15659 25228
L15659 24834
L15621 24890
L15584 24928
L15546 24946
" />
<path d="M16128 24834
L15940 24834
L15921 25021
L15940 25003
L15978 24984
L16071 24984
L16109 25003
L16128 25021
L16146 25059
L16146 25153
L16128 25190
L16109 25209
L16071 25228
L15978 25228
L15940 25209
L15921 25190
" />
<text x="38200" y="13096.9"
textLength="1245.97" font-size="524.934" lengthAdjust="spacingAndGlyphs"
text-anchor="middle" opacity="0">C53</text>
<path d="M37946 13040
L37928 13059
L37871 13078
L37834 13078
L37778 13059
L37740 13021
L37721 12984
L37703 12909
L37703 12853
L37721 12778
L37740 12740
L37778 12703
L37834 12684
L37871 12684
L37928 12703
L37946 12721
" />
<path d="M38303 12684
L38115 12684
L38096 12871
L38115 12853
L38153 12834
L38246 12834
L38284 12853
L38303 12871
L38321 12909
L38321 13003
L38303 13040
L38284 13059
L38246 13078
L38153 13078
L38115 13059
L38096 13040
" />
<path d="M38453 12684
L38696 12684
L38565 12834
L38621 12834
L38659 12853
L38678 12871
L38696 12909
L38696 13003
L38678 13040
L38659 13059
L38621 13078
L38509 13078
L38471 13059
L38453 13040
" />
<text x="32200" y="16996.9"
textLength="1245.97" font-size="524.934" lengthAdjust="spacingAndGlyphs"
text-anchor="middle" opacity="0">C57</text>
<path d="M31946 16940
L31928 16959
L31871 16978
L31834 16978
L31778 16959
L31740 16921
L31721 16884
L31703 16809
L31703 16753
L31721 16678
L31740 16640
L31778 16603
L31834 16584
L31871 16584
L31928 16603
L31946 16621
" />
<path d="M32303 16584
L32115 16584
L32096 16771
L32115 16753
L32153 16734
L32246 16734
L32284 16753
L32303 16771
L32321 16809
L32321 16903
L32303 16940
L32284 16959
L32246 16978
L32153 16978
L32115 16959
L32096 16940
" />
<path d="M32453 16584
L32715 16584
L32546 16978
" />
<text x="28900" y="18496.9"
textLength="1245.97" font-size="524.934" lengthAdjust="spacingAndGlyphs"
text-anchor="middle" opacity="0">C56</text>
<path d="M28646 18440
L28628 18459
L28571 18478
L28534 18478
L28478 18459
L28440 18421
L28421 18384
L28403 18309
L28403 18253
L28421 18178
L28440 18140
L28478 18103
L28534 18084
L28571 18084
L28628 18103
L28646 18121
" />
<path d="M29003 18084
L28815 18084
L28796 18271
L28815 18253
L28853 18234
L28946 18234
L28984 18253
L29003 18271
L29021 18309
L29021 18403
L29003 18440
L28984 18459
L28946 18478
L28853 18478
L28815 18459
L28796 18440
" />
<path d="M29359 18084
L29284 18084
L29246 18103
L29228 18121
L29190 18178
L29171 18253
L29171 18403
L29190 18440
L29209 18459
L29246 18478
L29321 18478
L29359 18459
L29378 18440
L29396 18403
L29396 18309
L29378 18271
L29359 18253
L29321 18234
L29246 18234
L29209 18253
L29190 18271
L29171 18309
" />
<text x="28250" y="26896.9"
textLength="1245.97" font-size="524.934" lengthAdjust="spacingAndGlyphs"
text-anchor="middle" opacity="0">C65</text>
<path d="M27996 26840
L27978 26859
L27921 26878
L27884 26878
L27828 26859
L27790 26821
L27771 26784
L27753 26709
L27753 26653
L27771 26578
L27790 26540
L27828 26503
L27884 26484
L27921 26484
L27978 26503
L27996 26521
" />
<path d="M28334 26484
L28259 26484
L28221 26503
L28203 26521
L28165 26578
L28146 26653
L28146 26803
L28165 26840
L28184 26859
L28221 26878
L28296 26878
L28334 26859
L28353 26840
L28371 26803
L28371 26709
L28353 26671
L28334 26653
L28296 26634
L28221 26634
L28184 26653
L28165 26671
L28146 26709
" />
<path d="M28728 26484
L28540 26484
L28521 26671
L28540 26653
L28578 26634
L28671 26634
L28709 26653
L28728 26671
L28746 26709
L28746 26803
L28728 26840
L28709 26859
L28671 26878
L28578 26878
L28540 26859
L28521 26840
" />
<text x="41025" y="28646.9"
textLength="1245.97" font-size="524.934" lengthAdjust="spacingAndGlyphs"
text-anchor="middle" opacity="0">C32</text>
<path d="M40771 28590
L40753 28609
L40696 28628
L40659 28628
L40603 28609
L40565 28571
L40546 28534
L40528 28459
L40528 28403
L40546 28328
L40565 28290
L40603 28253
L40659 28234
L40696 28234
L40753 28253
L40771 28271
" />
<path d="M40903 28234
L41146 28234
L41015 28384
L41071 28384
L41109 28403
L41128 28421
L41146 28459
L41146 28553
L41128 28590
L41109 28609
L41071 28628
L40959 28628
L40921 28609
L40903 28590
" />
<path d="M41296 28271
L41315 28253
L41353 28234
L41446 28234
L41484 28253
L41503 28271
L41521 28309
L41521 28346
L41503 28403
L41278 28628
L41521 28628
" />
<text x="25500" y="21146.9"
textLength="1245.97" font-size="524.934" lengthAdjust="spacingAndGlyphs"
text-anchor="middle" opacity="0">C15</text>
<path d="M25246 21090
L25228 21109
L25171 21128
L25134 21128
L25078 21109
L25040 21071
L25021 21034
L25003 20959
L25003 20903
L25021 20828
L25040 20790
L25078 20753
L25134 20734
L25171 20734
L25228 20753
L25246 20771
" />
<path d="M25621 21128
L25396 21128
" />
<path d="M25509 21128
L25509 20734
L25471 20790
L25434 20828
L25396 20846
" />
<path d="M25978 20734
L25790 20734
L25771 20921
L25790 20903
L25828 20884
L25921 20884
L25959 20903
L25978 20921
L25996 20959
L25996 21053
L25978 21090
L25959 21109
L25921 21128
L25828 21128
L25790 21109
L25771 21090
" />
<text x="34475" y="14146.9"
textLength="871.016" font-size="524.934" lengthAdjust="spacingAndGlyphs"
text-anchor="middle" opacity="0">C6</text>
<path d="M34409 14090
L34390 14109
L34334 14128
L34296 14128
L34240 14109
L34203 14071
L34184 14034
L34165 13959
L34165 13903
L34184 13828
L34203 13790
L34240 13753
L34296 13734
L34334 13734
L34390 13753
L34409 13771
" />
<path d="M34746 13734
L34671 13734
L34634 13753
L34615 13771
L34578 13828
L34559 13903
L34559 14053
L34578 14090
L34596 14109
L34634 14128
L34709 14128
L34746 14109
L34765 14090
L34784 14053
L34784 13959
L34765 13921
L34746 13903
L34709 13884
L34634 13884
L34596 13903
L34578 13921
L34559 13959
" />
<text x="35500" y="16246.9"
textLength="871.016" font-size="524.934" lengthAdjust="spacingAndGlyphs"
text-anchor="middle" opacity="0">C5</text>
<path d="M35434 16190
L35415 16209
L35359 16228
L35321 16228
L35265 16209
L35228 16171
L35209 16134
L35190 16059
L35190 16003
L35209 15928
L35228 15890
L35265 15853
L35321 15834
L35359 15834
L35415 15853
L35434 15871
" />
<path d="M35790 15834
L35603 15834
L35584 16021
L35603 16003
L35640 15984
L35734 15984
L35771 16003
L35790 16021
L35809 16059
L35809 16153
L35790 16190
L35771 16209
L35734 16228
L35640 16228
L35603 16209
L35584 16190
" />
<text x="39500" y="19696.9"
textLength="1245.97" font-size="524.934" lengthAdjust="spacingAndGlyphs"
text-anchor="middle" opacity="0">BZ1</text>
<path d="M39153 19471
L39209 19490
L39228 19509
L39246 19546
L39246 19603
L39228 19640
L39209 19659
L39171 19678
L39021 19678
L39021 19284
L39153 19284
L39190 19303
L39209 19321
L39228 19359
L39228 19396
L39209 19434
L39190 19453
L39153 19471
L39021 19471
" />
<path d="M39378 19284
L39640 19284
L39378 19678
L39640 19678
" />
<path d="M39996 19678
L39771 19678
" />
<path d="M39884 19678
L39884 19284
L39846 19340
L39809 19378
L39771 19396
" />
<text x="42550" y="20946.9"
textLength="889.764" font-size="524.934" lengthAdjust="spacingAndGlyphs"
text-anchor="middle" opacity="0">Q1</text>
<path d="M42512 20965
L42475 20946
L42437 20909
L42381 20853
L42343 20834
L42306 20834
" />
<path d="M42325 20928
L42287 20909
L42250 20871
L42231 20796
L42231 20665
L42250 20590
L42287 20553
L42325 20534
L42400 20534
L42437 20553
L42475 20590
L42493 20665
L42493 20796
L42475 20871
L42437 20909
L42400 20928
L42325 20928
" />
<path d="M42868 20928
L42643 20928
" />
<path d="M42756 20928
L42756 20534
L42718 20590
L42681 20628
L42643 20646
" />
<text x="41800" y="19896.9"
textLength="1245.97" font-size="524.934" lengthAdjust="spacingAndGlyphs"
text-anchor="middle" opacity="0">R24</text>
<path d="M41546 19878
L41415 19690
" />
<path d="M41321 19878
L41321 19484
L41471 19484
L41509 19503
L41528 19521
L41546 19559
L41546 19615
L41528 19653
L41509 19671
L41471 19690
L41321 19690
" />
<path d="M41696 19521
L41715 19503
L41753 19484
L41846 19484
L41884 19503
L41903 19521
L41921 19559
L41921 19596
L41903 19653
L41678 19878
L41921 19878
" />
<path d="M42259 19615
L42259 19878
" />
<path d="M42165 19465
L42071 19746
L42315 19746
" />
<text x="38625" y="22771.9"
textLength="1245.97" font-size="524.934" lengthAdjust="spacingAndGlyphs"
text-anchor="middle" opacity="0">C29</text>
<path d="M38371 22715
L38353 22734
L38296 22753
L38259 22753
L38203 22734
L38165 22696
L38146 22659
L38128 22584
L38128 22528
L38146 22453
L38165 22415
L38203 22378
L38259 22359
L38296 22359
L38353 22378
L38371 22396
" />
<path d="M38521 22396
L38540 22378
L38578 22359
L38671 22359
L38709 22378
L38728 22396
L38746 22434
L38746 22471
L38728 22528
L38503 22753
L38746 22753
" />
<path d="M38934 22753
L39009 22753
L39046 22734
L39065 22715
L39103 22659
L39121 22584
L39121 22434
L39103 22396
L39084 22378
L39046 22359
L38971 22359
L38934 22378
L38915 22396
L38896 22434
L38896 22528
L38915 22565
L38934 22584
L38971 22603
L39046 22603
L39084 22584
L39103 22565
L39121 22528
" />
<text x="41800" y="22771.9"
textLength="1245.97" font-size="524.934" lengthAdjust="spacingAndGlyphs"
text-anchor="middle" opacity="0">C26</text>
<path d="M41546 22715
L41528 22734
L41471 22753
L41434 22753
L41378 22734
L41340 22696
L41321 22659
L41303 22584
L41303 22528
L41321 22453
L41340 22415
L41378 22378
L41434 22359
L41471 22359
L41528 22378
L41546 22396
" />
<path d="M41696 22396
L41715 22378
L41753 22359
L41846 22359
L41884 22378
L41903 22396
L41921 22434
L41921 22471
L41903 22528
L41678 22753
L41921 22753
" />
<path d="M42259 22359
L42184 22359
L42146 22378
L42128 22396
L42090 22453
L42071 22528
L42071 22678
L42090 22715
L42109 22734
L42146 22753
L42221 22753
L42259 22734
L42278 22715
L42296 22678
L42296 22584
L42278 22546
L42259 22528
L42221 22509
L42146 22509
L42109 22528
L42090 22546
L42071 22584
" />
<text x="38200" y="12396.9"
textLength="1245.97" font-size="524.934" lengthAdjust="spacingAndGlyphs"
text-anchor="middle" opacity="0">R23</text>
<path d="M37946 12378
L37815 12190
" />
<path d="M37721 12378
L37721 11984
L37871 11984
L37909 12003
L37928 12021
L37946 12059
L37946 12115
L37928 12153
L37909 12171
L37871 12190
L37721 12190
" />
<path d="M38096 12021
L38115 12003
L38153 11984
L38246 11984
L38284 12003
L38303 12021
L38321 12059
L38321 12096
L38303 12153
L38078 12378
L38321 12378
" />
<path d="M38453 11984
L38696 11984
L38565 12134
L38621 12134
L38659 12153
L38678 12171
L38696 12209
L38696 12303
L38678 12340
L38659 12359
L38621 12378
L38509 12378
L38471 12359
L38453 12340
" />
<text x="33875" y="12696.9"
textLength="1245.97" font-size="524.934" lengthAdjust="spacingAndGlyphs"
text-anchor="middle" opacity="0">R19</text>
<path d="M33621 12678
L33490 12490
" />
<path d="M33396 12678
L33396 12284
L33546 12284
L33584 12303
L33603 12321
L33621 12359
L33621 12415
L33603 12453
L33584 12471
L33546 12490
L33396 12490
" />
<path d="M33996 12678
L33771 12678
" />
<path d="M33884 12678
L33884 12284
L33846 12340
L33809 12378
L33771 12396
" />
<path d="M34184 12678
L34259 12678
L34296 12659
L34315 12640
L34353 12584
L34371 12509
L34371 12359
L34353 12321
L34334 12303
L34296 12284
L34221 12284
L34184 12303
L34165 12321
L34146 12359
L34146 12453
L34165 12490
L34184 12509
L34221 12528
L34296 12528
L34334 12509
L34353 12490
L34371 12453
" />
<text x="44100" y="16896.9"
textLength="1245.97" font-size="524.934" lengthAdjust="spacingAndGlyphs"
text-anchor="middle" opacity="0">R18</text>
<path d="M43846 16878
L43715 16690
" />
<path d="M43621 16878
L43621 16484
L43771 16484
L43809 16503
L43828 16521
L43846 16559
L43846 16615
L43828 16653
L43809 16671
L43771 16690
L43621 16690
" />
<path d="M44221 16878
L43996 16878
" />
<path d="M44109 16878
L44109 16484
L44071 16540
L44034 16578
L43996 16596
" />
<path d="M44446 16653
L44409 16634
L44390 16615
L44371 16578
L44371 16559
L44390 16521
L44409 16503
L44446 16484
L44521 16484
L44559 16503
L44578 16521
L44596 16559
L44596 16578
L44578 16615
L44559 16634
L44521 16653
L44446 16653
L44409 16671
L44390 16690
L44371 16728
L44371 16803
L44390 16840
L44409 16859
L44446 16878
L44521 16878
L44559 16859
L44578 16840
L44596 16803
L44596 16728
L44578 16690
L44559 16671
L44521 16653
" />
<text x="42475" y="12646.9"
textLength="871.016" font-size="524.934" lengthAdjust="spacingAndGlyphs"
text-anchor="middle" opacity="0">D4</text>
<path d="M42184 12628
L42184 12234
L42278 12234
L42334 12253
L42371 12290
L42390 12328
L42409 12403
L42409 12459
L42390 12534
L42371 12571
L42334 12609
L42278 12628
L42184 12628
" />
<path d="M42746 12365
L42746 12628
" />
<path d="M42653 12215
L42559 12496
L42803 12496
" />
<text x="42600" y="13196.9"
textLength="871.016" font-size="524.934" lengthAdjust="spacingAndGlyphs"
text-anchor="middle" opacity="0">D3</text>
<path d="M42309 13178
L42309 12784
L42403 12784
L42459 12803
L42496 12840
L42515 12878
L42534 12953
L42534 13009
L42515 13084
L42496 13121
L42459 13159
L42403 13178
L42309 13178
" />
<path d="M42665 12784
L42909 12784
L42778 12934
L42834 12934
L42871 12953
L42890 12971
L42909 13009
L42909 13103
L42890 13140
L42871 13159
L42834 13178
L42721 13178
L42684 13159
L42665 13140
" />
<text x="34175" y="14896.9"
textLength="889.764" font-size="524.934" lengthAdjust="spacingAndGlyphs"
text-anchor="middle" opacity="0">U1</text>
<path d="M33875 14484
L33875 14803
L33893 14840
L33912 14859
L33950 14878
L34025 14878
L34062 14859
L34081 14840
L34100 14803
L34100 14484
" />
<path d="M34493 14878
L34268 14878
" />
<path d="M34381 14878
L34381 14484
L34343 14540
L34306 14578
L34268 14596
" />
<text x="33600" y="14996.9"
textLength="402.325" font-size="524.934" lengthAdjust="spacingAndGlyphs"
text-anchor="middle" opacity="0">*</text>
<path d="M33600 14584
L33600 14678
" />
<path d="M33506 14640
L33600 14678
L33693 14640
" />
<path d="M33543 14753
L33600 14678
L33656 14753
" />
<text x="17400" y="22946.9"
textLength="871.016" font-size="524.934" lengthAdjust="spacingAndGlyphs"
text-anchor="middle" opacity="0">R8</text>
<path d="M17334 22928
L17203 22740
" />
<path d="M17109 22928
L17109 22534
L17259 22534
L17296 22553
L17315 22571
L17334 22609
L17334 22665
L17315 22703
L17296 22721
L17259 22740
L17109 22740
" />
<path d="M17559 22703
L17521 22684
L17503 22665
L17484 22628
L17484 22609
L17503 22571
L17521 22553
L17559 22534
L17634 22534
L17671 22553
L17690 22571
L17709 22609
L17709 22628
L17690 22665
L17671 22684
L17634 22703
L17559 22703
L17521 22721
L17503 22740
L17484 22778
L17484 22853
L17503 22890
L17521 22909
L17559 22928
L17634 22928
L17671 22909
L17690 22890
L17709 22853
L17709 22778
L17690 22740
L17671 22721
L17634 22703
" />
<text x="27850" y="21571.9"
textLength="871.016" font-size="524.934" lengthAdjust="spacingAndGlyphs"
text-anchor="middle" opacity="0">R7</text>
<path d="M27784 21553
L27653 21365
" />
<path d="M27559 21553
L27559 21159
L27709 21159
L27746 21178
L27765 21196
L27784 21234
L27784 21290
L27765 21328
L27746 21346
L27709 21365
L27559 21365
" />
<path d="M27915 21159
L28178 21159
L28009 21553
" />
<text x="17400" y="21946.9"
textLength="871.016" font-size="524.934" lengthAdjust="spacingAndGlyphs"
text-anchor="middle" opacity="0">R9</text>
<path d="M17334 21928
L17203 21740
" />
<path d="M17109 21928
L17109 21534
L17259 21534
L17296 21553
L17315 21571
L17334 21609
L17334 21665
L17315 21703
L17296 21721
L17259 21740
L17109 21740
" />
<path d="M17521 21928
L17596 21928
L17634 21909
L17653 21890
L17690 21834
L17709 21759
L17709 21609
L17690 21571
L17671 21553
L17634 21534
L17559 21534
L17521 21553
L17503 21571
L17484 21609
L17484 21703
L17503 21740
L17521 21759
L17559 21778
L17634 21778
L17671 21759
L17690 21740
L17709 21703
" />
<text x="27850" y="23221.9"
textLength="871.016" font-size="524.934" lengthAdjust="spacingAndGlyphs"
text-anchor="middle" opacity="0">R6</text>
<path d="M27784 23203
L27653 23015
" />
<path d="M27559 23203
L27559 22809
L27709 22809
L27746 22828
L27765 22846
L27784 22884
L27784 22940
L27765 22978
L27746 22996
L27709 23015
L27559 23015
" />
<path d="M28121 22809
L28046 22809
L28009 22828
L27990 22846
L27953 22903
L27934 22978
L27934 23128
L27953 23165
L27971 23184
L28009 23203
L28084 23203
L28121 23184
L28140 23165
L28159 23128
L28159 23034
L28140 22996
L28121 22978
L28084 22959
L28009 22959
L27971 22978
L27953 22996
L27934 23034
" />
<text x="34665.9" y="22821.9"
textLength="1208.47" font-size="524.934" lengthAdjust="spacingAndGlyphs"
text-anchor="middle" opacity="0">FB1</text>
<path d="M34337 22596
L34206 22596
" />
<path d="M34206 22803
L34206 22409
L34394 22409
" />
<path d="M34675 22596
L34731 22615
L34750 22634
L34769 22671
L34769 22728
L34750 22765
L34731 22784
L34694 22803
L34544 22803
L34544 22409
L34675 22409
L34712 22428
L34731 22446
L34750 22484
L34750 22521
L34731 22559
L34712 22578
L34675 22596
L34544 22596
" />
<path d="M35144 22803
L34919 22803
" />
<path d="M35031 22803
L35031 22409
L34994 22465
L34956 22503
L34919 22521
" />
<text x="34600" y="19196.9"
textLength="1245.97" font-size="524.934" lengthAdjust="spacingAndGlyphs"
text-anchor="middle" opacity="0">C58</text>
<path d="M34346 19140
L34328 19159
L34271 19178
L34234 19178
L34178 19159
L34140 19121
L34121 19084
L34103 19009
L34103 18953
L34121 18878
L34140 18840
L34178 18803
L34234 18784
L34271 18784
L34328 18803
L34346 18821
" />
<path d="M34703 18784
L34515 18784
L34496 18971
L34515 18953
L34553 18934
L34646 18934
L34684 18953
L34703 18971
L34721 19009
L34721 19103
L34703 19140
L34684 19159
L34646 19178
L34553 19178
L34515 19159
L34496 19140
" />
<path d="M34946 18953
L34909 18934
L34890 18915
L34871 18878
L34871 18859
L34890 18821
L34909 18803
L34946 18784
L35021 18784
L35059 18803
L35078 18821
L35096 18859
L35096 18878
L35078 18915
L35059 18934
L35021 18953
L34946 18953
L34909 18971
L34890 18990
L34871 19028
L34871 19103
L34890 19140
L34909 19159
L34946 19178
L35021 19178
L35059 19159
L35078 19140
L35096 19103
L35096 19028
L35078 18990
L35059 18971
L35021 18953
" />
<g >
</g>
</g> 
</svg>
